<svg width="19" height="25" viewBox="0 0 19 25" fill="none" xmlns="http://www.w3.org/2000/svg">
<path d="M5.24803 15.7439C3.75973 15.7439 2.54883 14.5329 2.54883 13.0447C2.54883 12.7283 2.80664 12.4705 3.12303 12.4705C3.43943 12.4705 3.69723 12.7283 3.69723 13.0447C3.69723 13.9001 4.39448 14.5974 5.24998 14.5974C6.10548 14.5974 6.80273 13.9002 6.80273 13.0447C6.80273 12.7283 7.06054 12.4705 7.37693 12.4705C7.69333 12.4705 7.95113 12.7283 7.95113 13.0447C7.94722 14.533 6.73628 15.7439 5.24803 15.7439Z" fill="#4AF6CD" stroke="#4AF6CD" stroke-width="0.5"/>
<path d="M9.49998 15.7439C8.01168 15.7439 6.80078 14.5329 6.80078 13.0447C6.80078 12.7283 7.0586 12.4705 7.37498 12.4705C7.69137 12.4705 7.94918 12.7283 7.94918 13.0447C7.94918 13.9001 8.64643 14.5974 9.50193 14.5974C10.3574 14.5974 11.0547 13.9002 11.0547 13.0447C11.0547 12.7283 11.3125 12.4705 11.6289 12.4705C11.9453 12.4705 12.2031 12.7283 12.2031 13.0447C12.1992 14.533 10.9882 15.7439 9.49998 15.7439Z" fill="#4AF6CD" stroke="#4AF6CD" stroke-width="0.5"/>
<path d="M13.7522 15.7439C12.2639 15.7439 11.053 14.5329 11.053 13.0447C11.053 12.7283 11.3108 12.4705 11.6272 12.4705C11.9436 12.4705 12.2014 12.7283 12.2014 13.0447C12.2014 13.9001 12.8986 14.5974 13.7541 14.5974C14.6096 14.5974 15.3069 13.9002 15.3069 13.0447C15.3069 12.7283 15.5647 12.4705 15.8811 12.4705C16.1975 12.4705 16.4553 12.7283 16.4553 13.0447C16.4514 14.533 15.2404 15.7439 13.7522 15.7439Z" fill="#4AF6CD" stroke="#4AF6CD" stroke-width="0.5"/>
<path fill-rule="evenodd" clip-rule="evenodd" d="M0.422119 15.0685C0.422119 20.0742 4.49412 24.1465 9.50012 24.1465L9.50037 24.1466C14.5062 24.1466 18.5784 20.0746 18.5804 15.0686C18.5804 8.23659 10.2368 0.795042 9.88137 0.480587C9.67237 0.295042 9.35791 0.289182 9.14112 0.464962C8.78362 0.751962 0.422119 7.59196 0.422119 15.0685ZM9.48423 1.67769C9.48432 1.67761 9.48441 1.67754 9.48449 1.67746H9.48399C9.48407 1.67754 9.48415 1.67761 9.48423 1.67769ZM9.48423 1.67769C7.86467 3.09799 1.56849 9.00179 1.56849 15.068C1.56849 19.441 5.12514 22.9975 9.49799 22.9975C13.8708 22.9975 17.4275 19.4408 17.4275 15.068C17.4294 9.52524 11.0901 3.1916 9.48423 1.67769Z" fill="#4AF6CD"/>
<path d="M9.50012 24.1465L9.6126 23.9232L9.55954 23.8965H9.50012V24.1465ZM9.50037 24.1466L9.38788 24.3699L9.44095 24.3966H9.50037V24.1466ZM18.5804 15.0686L18.8304 15.0687V15.0686H18.5804ZM9.88137 0.480587L9.71539 0.667543L9.71573 0.667836L9.88137 0.480587ZM9.14112 0.464962L9.29763 0.659916L9.29857 0.659151L9.14112 0.464962ZM9.48449 1.67746L9.64883 1.86586L10.1514 1.42746H9.48449V1.67746ZM9.48399 1.67746V1.42746H8.85543L9.31229 1.85917L9.48399 1.67746ZM17.4275 15.068L17.1775 15.0679V15.068H17.4275ZM9.50012 23.8965C4.63219 23.8965 0.672119 19.9361 0.672119 15.0685H0.172119C0.172119 20.2123 4.35604 24.3965 9.50012 24.3965V23.8965ZM9.61285 23.9233L9.6126 23.9232L9.38763 24.3697L9.38788 24.3699L9.61285 23.9233ZM18.3304 15.0685C18.3285 19.9365 14.3681 23.8966 9.50037 23.8966V24.3966C14.6443 24.3966 18.8284 20.2127 18.8304 15.0687L18.3304 15.0685ZM9.71573 0.667836C9.88822 0.820431 12.0499 2.74757 14.1664 5.48348C16.2912 8.23003 18.3304 11.7411 18.3304 15.0686H18.8304C18.8304 11.5641 16.6978 7.93837 14.5619 5.17754C12.4178 2.40606 10.23 0.455199 10.047 0.293338L9.71573 0.667836ZM9.29857 0.659151C9.42099 0.559889 9.59856 0.563816 9.71539 0.667543L10.0473 0.293632C9.74618 0.0262691 9.29484 0.0184753 8.98367 0.270774L9.29857 0.659151ZM0.672119 15.0685C0.672119 11.4168 2.71844 7.89379 4.8431 5.22641C6.9622 2.56601 9.12641 0.797364 9.29762 0.659913L8.98461 0.270011C8.79833 0.419561 6.60304 2.21441 4.45201 4.91489C2.30655 7.60839 0.172119 11.2436 0.172119 15.0685H0.672119ZM9.32016 1.48906L9.3199 1.48929L9.64857 1.86609L9.64883 1.86586L9.32016 1.48906ZM9.48399 1.92746H9.48449V1.42746H9.48399V1.92746ZM9.65594 1.49598C9.65594 1.49598 9.65594 1.49598 9.65594 1.49598C9.65594 1.49598 9.65594 1.49598 9.65594 1.49598C9.65594 1.49598 9.65594 1.49598 9.65594 1.49598C9.65594 1.49598 9.65594 1.49598 9.65594 1.49598C9.65594 1.49598 9.65594 1.49598 9.65594 1.49598C9.65594 1.49598 9.65594 1.49598 9.65594 1.49598C9.65594 1.49598 9.65594 1.49598 9.65594 1.49598C9.65594 1.49598 9.65593 1.49598 9.65593 1.49598C9.65593 1.49598 9.65593 1.49598 9.65593 1.49598C9.65593 1.49598 9.65593 1.49598 9.65593 1.49598C9.65593 1.49598 9.65593 1.49598 9.65593 1.49598C9.65593 1.49598 9.65593 1.49598 9.65593 1.49598C9.65593 1.49598 9.65593 1.49598 9.65593 1.49598C9.65593 1.49598 9.65593 1.49598 9.65593 1.49597C9.65593 1.49597 9.65593 1.49597 9.65593 1.49597C9.65593 1.49597 9.65593 1.49597 9.65593 1.49597C9.65593 1.49597 9.65593 1.49597 9.65593 1.49597C9.65593 1.49597 9.65593 1.49597 9.65593 1.49597C9.65593 1.49597 9.65593 1.49597 9.65593 1.49597C9.65593 1.49597 9.65593 1.49597 9.65593 1.49597C9.65593 1.49597 9.65593 1.49597 9.65593 1.49597C9.65593 1.49597 9.65593 1.49597 9.65593 1.49597C9.65593 1.49597 9.65593 1.49597 9.65593 1.49597C9.65593 1.49597 9.65593 1.49597 9.65593 1.49597C9.65593 1.49597 9.65593 1.49597 9.65593 1.49597C9.65593 1.49597 9.65593 1.49597 9.65593 1.49597C9.65593 1.49597 9.65593 1.49597 9.65593 1.49597C9.65593 1.49597 9.65593 1.49597 9.65592 1.49597C9.65592 1.49597 9.65592 1.49597 9.65592 1.49597C9.65592 1.49597 9.65592 1.49597 9.65592 1.49597C9.65592 1.49597 9.65592 1.49597 9.65592 1.49597C9.65592 1.49597 9.65592 1.49597 9.65592 1.49597C9.65592 1.49597 9.65592 1.49597 9.65592 1.49597C9.65592 1.49597 9.65592 1.49597 9.65592 1.49597C9.65592 1.49597 9.65592 1.49597 9.65592 1.49597C9.65592 1.49597 9.65592 1.49597 9.65592 1.49597C9.65592 1.49597 9.65592 1.49596 9.65592 1.49596C9.65592 1.49596 9.65592 1.49596 9.65592 1.49596C9.65592 1.49596 9.65592 1.49596 9.65592 1.49596C9.65592 1.49596 9.65592 1.49596 9.65592 1.49596C9.65592 1.49596 9.65592 1.49596 9.65592 1.49596C9.65592 1.49596 9.65592 1.49596 9.65592 1.49596C9.65592 1.49596 9.65592 1.49596 9.65592 1.49596C9.65592 1.49596 9.65592 1.49596 9.65592 1.49596C9.65592 1.49596 9.65592 1.49596 9.65592 1.49596C9.65592 1.49596 9.65592 1.49596 9.65592 1.49596C9.65592 1.49596 9.65592 1.49596 9.65592 1.49596C9.65592 1.49596 9.65592 1.49596 9.65592 1.49596C9.65592 1.49596 9.65592 1.49596 9.65592 1.49596C9.65592 1.49596 9.65592 1.49596 9.65592 1.49596C9.65591 1.49596 9.65591 1.49596 9.65591 1.49596C9.65591 1.49596 9.65591 1.49596 9.65591 1.49596C9.65591 1.49596 9.65591 1.49596 9.65591 1.49596C9.65591 1.49596 9.65591 1.49596 9.65591 1.49596C9.65591 1.49596 9.65591 1.49596 9.65591 1.49596C9.65591 1.49596 9.65591 1.49596 9.65591 1.49596C9.65591 1.49596 9.65591 1.49596 9.65591 1.49596C9.65591 1.49596 9.65591 1.49596 9.65591 1.49596C9.65591 1.49596 9.65591 1.49596 9.65591 1.49595C9.65591 1.49595 9.65591 1.49595 9.65591 1.49595C9.65591 1.49595 9.65591 1.49595 9.65591 1.49595C9.65591 1.49595 9.65591 1.49595 9.65591 1.49595C9.65591 1.49595 9.65591 1.49595 9.65591 1.49595C9.65591 1.49595 9.65591 1.49595 9.65591 1.49595C9.65591 1.49595 9.65591 1.49595 9.65591 1.49595C9.65591 1.49595 9.65591 1.49595 9.65591 1.49595C9.65591 1.49595 9.65591 1.49595 9.65591 1.49595C9.65591 1.49595 9.65591 1.49595 9.65591 1.49595C9.65591 1.49595 9.65591 1.49595 9.65591 1.49595C9.65591 1.49595 9.65591 1.49595 9.65591 1.49595C9.65591 1.49595 9.6559 1.49595 9.6559 1.49595C9.6559 1.49595 9.6559 1.49595 9.6559 1.49595C9.6559 1.49595 9.6559 1.49595 9.6559 1.49595C9.6559 1.49595 9.6559 1.49595 9.6559 1.49595C9.6559 1.49595 9.6559 1.49595 9.6559 1.49595C9.6559 1.49595 9.6559 1.49595 9.6559 1.49595C9.6559 1.49595 9.6559 1.49595 9.6559 1.49595C9.6559 1.49595 9.6559 1.49595 9.6559 1.49595C9.6559 1.49595 9.6559 1.49595 9.6559 1.49595C9.6559 1.49595 9.6559 1.49595 9.6559 1.49595C9.6559 1.49595 9.6559 1.49595 9.6559 1.49595C9.6559 1.49595 9.6559 1.49594 9.6559 1.49594C9.6559 1.49594 9.6559 1.49594 9.6559 1.49594C9.6559 1.49594 9.6559 1.49594 9.6559 1.49594C9.6559 1.49594 9.6559 1.49594 9.6559 1.49594C9.6559 1.49594 9.6559 1.49594 9.6559 1.49594C9.6559 1.49594 9.6559 1.49594 9.6559 1.49594C9.6559 1.49594 9.6559 1.49594 9.6559 1.49594C9.6559 1.49594 9.6559 1.49594 9.6559 1.49594C9.6559 1.49594 9.6559 1.49594 9.6559 1.49594C9.6559 1.49594 9.6559 1.49594 9.6559 1.49594C9.6559 1.49594 9.6559 1.49594 9.6559 1.49594C9.6559 1.49594 9.6559 1.49594 9.65589 1.49594C9.65589 1.49594 9.65589 1.49594 9.65589 1.49594C9.65589 1.49594 9.65589 1.49594 9.65589 1.49594C9.65589 1.49594 9.65589 1.49594 9.65589 1.49594C9.65589 1.49594 9.65589 1.49594 9.65589 1.49594C9.65589 1.49594 9.65589 1.49594 9.65589 1.49594C9.65589 1.49594 9.65589 1.49594 9.65589 1.49594C9.65589 1.49594 9.65589 1.49594 9.65589 1.49594C9.65589 1.49594 9.65589 1.49594 9.65589 1.49594C9.65589 1.49594 9.65589 1.49594 9.65589 1.49594C9.65589 1.49594 9.65589 1.49594 9.65589 1.49594C9.65589 1.49594 9.65589 1.49594 9.65589 1.49593C9.65589 1.49593 9.65589 1.49593 9.65589 1.49593C9.65589 1.49593 9.65589 1.49593 9.65589 1.49593C9.65589 1.49593 9.65589 1.49593 9.65589 1.49593C9.65589 1.49593 9.65589 1.49593 9.65589 1.49593C9.65589 1.49593 9.65589 1.49593 9.65589 1.49593C9.65589 1.49593 9.65589 1.49593 9.65589 1.49593C9.65589 1.49593 9.65589 1.49593 9.65589 1.49593C9.65589 1.49593 9.65589 1.49593 9.65589 1.49593C9.65589 1.49593 9.65589 1.49593 9.65589 1.49593C9.65588 1.49593 9.65588 1.49593 9.65588 1.49593C9.65588 1.49593 9.65588 1.49593 9.65588 1.49593C9.65588 1.49593 9.65588 1.49593 9.65588 1.49593C9.65588 1.49593 9.65588 1.49593 9.65588 1.49593C9.65588 1.49593 9.65588 1.49593 9.65588 1.49593C9.65588 1.49593 9.65588 1.49593 9.65588 1.49593C9.65588 1.49593 9.65588 1.49593 9.65588 1.49593C9.65588 1.49593 9.65588 1.49593 9.65588 1.49593C9.65588 1.49593 9.65588 1.49593 9.65588 1.49593C9.65588 1.49593 9.65588 1.49593 9.65588 1.49593C9.65588 1.49593 9.65588 1.49593 9.65588 1.49593C9.65588 1.49593 9.65588 1.49593 9.65588 1.49593C9.65588 1.49593 9.65588 1.49593 9.65588 1.49593C9.65588 1.49593 9.65588 1.49592 9.65588 1.49592C9.65588 1.49592 9.65588 1.49592 9.65588 1.49592C9.65588 1.49592 9.65588 1.49592 9.65588 1.49592C9.65588 1.49592 9.65588 1.49592 9.65588 1.49592C9.65588 1.49592 9.65588 1.49592 9.65588 1.49592C9.65588 1.49592 9.65588 1.49592 9.65588 1.49592C9.65588 1.49592 9.65588 1.49592 9.65588 1.49592C9.65588 1.49592 9.65588 1.49592 9.65588 1.49592C9.65588 1.49592 9.65588 1.49592 9.65588 1.49592C9.65588 1.49592 9.65587 1.49592 9.65587 1.49592C9.65587 1.49592 9.65587 1.49592 9.65587 1.49592C9.65587 1.49592 9.65587 1.49592 9.65587 1.49592C9.65587 1.49592 9.65587 1.49592 9.65587 1.49592C9.65587 1.49592 9.65587 1.49592 9.65587 1.49592C9.65587 1.49592 9.65587 1.49592 9.65587 1.49592C9.65587 1.49592 9.65587 1.49592 9.65587 1.49592C9.65587 1.49592 9.65587 1.49592 9.65587 1.49592C9.65587 1.49592 9.65587 1.49592 9.65587 1.49592C9.65587 1.49592 9.65587 1.49592 9.65587 1.49592C9.65587 1.49592 9.65587 1.49592 9.65587 1.49592C9.65587 1.49592 9.65587 1.49592 9.65587 1.49592C9.65587 1.49592 9.65587 1.49592 9.65587 1.49592C9.65587 1.49592 9.65587 1.49592 9.65587 1.49592C9.65587 1.49591 9.65587 1.49591 9.65587 1.49591C9.65587 1.49591 9.65587 1.49591 9.65587 1.49591C9.65587 1.49591 9.65587 1.49591 9.65587 1.49591C9.65587 1.49591 9.65587 1.49591 9.65587 1.49591C9.65587 1.49591 9.65587 1.49591 9.65587 1.49591C9.65587 1.49591 9.65587 1.49591 9.65587 1.49591C9.65587 1.49591 9.65587 1.49591 9.65586 1.49591C9.65586 1.49591 9.65586 1.49591 9.65586 1.49591C9.65586 1.49591 9.65586 1.49591 9.65586 1.49591C9.65586 1.49591 9.65586 1.49591 9.65586 1.49591C9.65586 1.49591 9.65586 1.49591 9.65586 1.49591C9.65586 1.49591 9.65586 1.49591 9.65586 1.49591C9.65586 1.49591 9.65586 1.49591 9.65586 1.49591C9.65586 1.49591 9.65586 1.49591 9.65586 1.49591C9.65586 1.49591 9.65586 1.49591 9.65586 1.49591C9.65586 1.49591 9.65586 1.49591 9.65586 1.49591C9.65586 1.49591 9.65586 1.49591 9.65586 1.49591C9.65586 1.49591 9.65586 1.49591 9.65586 1.49591C9.65586 1.49591 9.65586 1.49591 9.65586 1.49591C9.65586 1.49591 9.65586 1.49591 9.65586 1.49591C9.65586 1.49591 9.65586 1.49591 9.65586 1.49591C9.65586 1.49591 9.65586 1.49591 9.65586 1.49591C9.65586 1.49591 9.65586 1.49591 9.65586 1.4959C9.65586 1.4959 9.65586 1.4959 9.65586 1.4959C9.65586 1.4959 9.65586 1.4959 9.65586 1.4959C9.65586 1.4959 9.65586 1.4959 9.65586 1.4959C9.65586 1.4959 9.65586 1.4959 9.65586 1.4959C9.65586 1.4959 9.65586 1.4959 9.65586 1.4959C9.65586 1.4959 9.65586 1.4959 9.65586 1.4959C9.65585 1.4959 9.65585 1.4959 9.65585 1.4959C9.65585 1.4959 9.65585 1.4959 9.65585 1.4959C9.65585 1.4959 9.65585 1.4959 9.65585 1.4959C9.65585 1.4959 9.65585 1.4959 9.65585 1.4959C9.65585 1.4959 9.65585 1.4959 9.65585 1.4959C9.65585 1.4959 9.65585 1.4959 9.65585 1.4959C9.65585 1.4959 9.65585 1.4959 9.65585 1.4959C9.65585 1.4959 9.65585 1.4959 9.65585 1.4959C9.65585 1.4959 9.65585 1.4959 9.65585 1.4959C9.65585 1.4959 9.65585 1.4959 9.65585 1.4959C9.65585 1.4959 9.65585 1.4959 9.65585 1.4959C9.65585 1.4959 9.65585 1.4959 9.65585 1.4959C9.65585 1.4959 9.65585 1.4959 9.65585 1.4959C9.65585 1.4959 9.65585 1.4959 9.65585 1.4959C9.65585 1.4959 9.65585 1.4959 9.65585 1.4959C9.65585 1.4959 9.65585 1.4959 9.65585 1.4959C9.65585 1.49589 9.65585 1.49589 9.65585 1.49589C9.65585 1.49589 9.65585 1.49589 9.65585 1.49589C9.65585 1.49589 9.65585 1.49589 9.65585 1.49589C9.65585 1.49589 9.65585 1.49589 9.65585 1.49589C9.65585 1.49589 9.65584 1.49589 9.65584 1.49589C9.65584 1.49589 9.65584 1.49589 9.65584 1.49589C9.65584 1.49589 9.65584 1.49589 9.65584 1.49589C9.65584 1.49589 9.65584 1.49589 9.65584 1.49589C9.65584 1.49589 9.65584 1.49589 9.65584 1.49589C9.65584 1.49589 9.65584 1.49589 9.65584 1.49589C9.65584 1.49589 9.65584 1.49589 9.65584 1.49589C9.65584 1.49589 9.65584 1.49589 9.65584 1.49589C9.65584 1.49589 9.65584 1.49589 9.65584 1.49589C9.65584 1.49589 9.65584 1.49589 9.65584 1.49589C9.65584 1.49589 9.65584 1.49589 9.65584 1.49589C9.65584 1.49589 9.65584 1.49589 9.65584 1.49589C9.65584 1.49589 9.65584 1.49589 9.65584 1.49589C9.65584 1.49589 9.65584 1.49589 9.65584 1.49589C9.65584 1.49589 9.65584 1.49589 9.65584 1.49589C9.65584 1.49589 9.65584 1.49589 9.65584 1.49589C9.65584 1.49589 9.65584 1.49589 9.65584 1.49589C9.65584 1.49589 9.65584 1.49589 9.65584 1.49589C9.65584 1.49589 9.65584 1.49589 9.65584 1.49588C9.65584 1.49588 9.65584 1.49588 9.65584 1.49588C9.65584 1.49588 9.65584 1.49588 9.65584 1.49588C9.65584 1.49588 9.65584 1.49588 9.65584 1.49588C9.65584 1.49588 9.65584 1.49588 9.65583 1.49588C9.65583 1.49588 9.65583 1.49588 9.65583 1.49588C9.65583 1.49588 9.65583 1.49588 9.65583 1.49588C9.65583 1.49588 9.65583 1.49588 9.65583 1.49588C9.65583 1.49588 9.65583 1.49588 9.65583 1.49588C9.65583 1.49588 9.65583 1.49588 9.65583 1.49588C9.65583 1.49588 9.65583 1.49588 9.65583 1.49588C9.65583 1.49588 9.65583 1.49588 9.65583 1.49588C9.65583 1.49588 9.65583 1.49588 9.65583 1.49588C9.65583 1.49588 9.65583 1.49588 9.65583 1.49588C9.65583 1.49588 9.65583 1.49588 9.65583 1.49588C9.65583 1.49588 9.65583 1.49588 9.65583 1.49588C9.65583 1.49588 9.65583 1.49588 9.65583 1.49588C9.65583 1.49588 9.65583 1.49588 9.65583 1.49588C9.65583 1.49588 9.65583 1.49588 9.65583 1.49588C9.65583 1.49588 9.65583 1.49588 9.65583 1.49588C9.65583 1.49588 9.65583 1.49588 9.65583 1.49588C9.65583 1.49588 9.65583 1.49588 9.65583 1.49588C9.65583 1.49588 9.65583 1.49588 9.65583 1.49588C9.65583 1.49588 9.65583 1.49587 9.65583 1.49587C9.65583 1.49587 9.65583 1.49587 9.65583 1.49587C9.65582 1.49587 9.65582 1.49587 9.65582 1.49587C9.65582 1.49587 9.65582 1.49587 9.65582 1.49587C9.65582 1.49587 9.65582 1.49587 9.65582 1.49587C9.65582 1.49587 9.65582 1.49587 9.65582 1.49587C9.65582 1.49587 9.65582 1.49587 9.65582 1.49587C9.65582 1.49587 9.65582 1.49587 9.65582 1.49587C9.65582 1.49587 9.65582 1.49587 9.65582 1.49587C9.65582 1.49587 9.65582 1.49587 9.65582 1.49587C9.65582 1.49587 9.65582 1.49587 9.65582 1.49587C9.65582 1.49587 9.65582 1.49587 9.65582 1.49587C9.65582 1.49587 9.65582 1.49587 9.65582 1.49587C9.65582 1.49587 9.65582 1.49587 9.65582 1.49587C9.65582 1.49587 9.65582 1.49587 9.65582 1.49587C9.65582 1.49587 9.65582 1.49587 9.65582 1.49587C9.65582 1.49587 9.65582 1.49587 9.65582 1.49587C9.65582 1.49587 9.65582 1.49587 9.65582 1.49587C9.65582 1.49587 9.65582 1.49587 9.65582 1.49587C9.65582 1.49587 9.65582 1.49587 9.65582 1.49587C9.65582 1.49587 9.65582 1.49587 9.65582 1.49587C9.65582 1.49587 9.65582 1.49587 9.65582 1.49587C9.65582 1.49587 9.65582 1.49587 9.65582 1.49586C9.65582 1.49586 9.65582 1.49586 9.65582 1.49586C9.65582 1.49586 9.65581 1.49586 9.65581 1.49586C9.65581 1.49586 9.65581 1.49586 9.65581 1.49586C9.65581 1.49586 9.65581 1.49586 9.65581 1.49586C9.65581 1.49586 9.65581 1.49586 9.65581 1.49586C9.65581 1.49586 9.65581 1.49586 9.65581 1.49586C9.65581 1.49586 9.65581 1.49586 9.65581 1.49586C9.65581 1.49586 9.65581 1.49586 9.65581 1.49586C9.65581 1.49586 9.65581 1.49586 9.65581 1.49586C9.65581 1.49586 9.65581 1.49586 9.65581 1.49586C9.65581 1.49586 9.65581 1.49586 9.65581 1.49586C9.65581 1.49586 9.65581 1.49586 9.65581 1.49586C9.65581 1.49586 9.65581 1.49586 9.65581 1.49586C9.65581 1.49586 9.65581 1.49586 9.65581 1.49586C9.65581 1.49586 9.65581 1.49586 9.65581 1.49586C9.65581 1.49586 9.65581 1.49586 9.65581 1.49586C9.65581 1.49586 9.65581 1.49586 9.65581 1.49586C9.65581 1.49586 9.65581 1.49586 9.65581 1.49586C9.65581 1.49586 9.65581 1.49586 9.65581 1.49586C9.65581 1.49586 9.65581 1.49586 9.65581 1.49586C9.65581 1.49586 9.65581 1.49586 9.65581 1.49586C9.65581 1.49586 9.65581 1.49586 9.6558 1.49586C9.6558 1.49586 9.6558 1.49585 9.6558 1.49585C9.6558 1.49585 9.6558 1.49585 9.6558 1.49585C9.6558 1.49585 9.6558 1.49585 9.6558 1.49585C9.6558 1.49585 9.6558 1.49585 9.6558 1.49585C9.6558 1.49585 9.6558 1.49585 9.6558 1.49585C9.6558 1.49585 9.6558 1.49585 9.6558 1.49585C9.6558 1.49585 9.6558 1.49585 9.6558 1.49585C9.6558 1.49585 9.6558 1.49585 9.6558 1.49585C9.6558 1.49585 9.6558 1.49585 9.6558 1.49585C9.6558 1.49585 9.6558 1.49585 9.6558 1.49585C9.6558 1.49585 9.6558 1.49585 9.6558 1.49585C9.6558 1.49585 9.6558 1.49585 9.6558 1.49585C9.6558 1.49585 9.6558 1.49585 9.6558 1.49585C9.6558 1.49585 9.6558 1.49585 9.6558 1.49585C9.6558 1.49585 9.6558 1.49585 9.6558 1.49585C9.6558 1.49585 9.6558 1.49585 9.6558 1.49585C9.6558 1.49585 9.6558 1.49585 9.6558 1.49585C9.6558 1.49585 9.6558 1.49585 9.6558 1.49585C9.6558 1.49585 9.6558 1.49585 9.6558 1.49585C9.6558 1.49585 9.6558 1.49585 9.6558 1.49585C9.6558 1.49585 9.6558 1.49585 9.6558 1.49585C9.6558 1.49585 9.6558 1.49585 9.6558 1.49585C9.65579 1.49585 9.65579 1.49585 9.65579 1.49584C9.65579 1.49584 9.65579 1.49584 9.65579 1.49584C9.65579 1.49584 9.65579 1.49584 9.65579 1.49584C9.65579 1.49584 9.65579 1.49584 9.65579 1.49584C9.65579 1.49584 9.65579 1.49584 9.65579 1.49584C9.65579 1.49584 9.65579 1.49584 9.65579 1.49584C9.65579 1.49584 9.65579 1.49584 9.65579 1.49584C9.65579 1.49584 9.65579 1.49584 9.65579 1.49584C9.65579 1.49584 9.65579 1.49584 9.65579 1.49584C9.65579 1.49584 9.65579 1.49584 9.65579 1.49584C9.65579 1.49584 9.65579 1.49584 9.65579 1.49584C9.65579 1.49584 9.65579 1.49584 9.65579 1.49584C9.65579 1.49584 9.65579 1.49584 9.65579 1.49584C9.65579 1.49584 9.65579 1.49584 9.65579 1.49584C9.65579 1.49584 9.65579 1.49584 9.65579 1.49584C9.65579 1.49584 9.65579 1.49584 9.65579 1.49584C9.65579 1.49584 9.65579 1.49584 9.65579 1.49584C9.65579 1.49584 9.65579 1.49584 9.65579 1.49584C9.65579 1.49584 9.65579 1.49584 9.65579 1.49584C9.65579 1.49584 9.65579 1.49584 9.65579 1.49584C9.65579 1.49584 9.65578 1.49584 9.65578 1.49584C9.65578 1.49584 9.65578 1.49584 9.65578 1.49584C9.65578 1.49584 9.65578 1.49584 9.65578 1.49584C9.65578 1.49584 9.65578 1.49583 9.65578 1.49583C9.65578 1.49583 9.65578 1.49583 9.65578 1.49583C9.65578 1.49583 9.65578 1.49583 9.65578 1.49583C9.65578 1.49583 9.65578 1.49583 9.65578 1.49583C9.65578 1.49583 9.65578 1.49583 9.65578 1.49583C9.65578 1.49583 9.65578 1.49583 9.65578 1.49583C9.65578 1.49583 9.65578 1.49583 9.65578 1.49583C9.65578 1.49583 9.65578 1.49583 9.65578 1.49583C9.65578 1.49583 9.65578 1.49583 9.65578 1.49583C9.65578 1.49583 9.65578 1.49583 9.65578 1.49583C9.65578 1.49583 9.65578 1.49583 9.65578 1.49583C9.65578 1.49583 9.65578 1.49583 9.65578 1.49583C9.65578 1.49583 9.65578 1.49583 9.65578 1.49583C9.65578 1.49583 9.65578 1.49583 9.65578 1.49583C9.65578 1.49583 9.65578 1.49583 9.65578 1.49583C9.65578 1.49583 9.65578 1.49583 9.65578 1.49583C9.65578 1.49583 9.65578 1.49583 9.65578 1.49583C9.65578 1.49583 9.65578 1.49583 9.65578 1.49583C9.65578 1.49583 9.65578 1.49583 9.65578 1.49583C9.65578 1.49583 9.65578 1.49583 9.65577 1.49583C9.65577 1.49583 9.65577 1.49583 9.65577 1.49583C9.65577 1.49583 9.65577 1.49583 9.65577 1.49583C9.65577 1.49583 9.65577 1.49583 9.65577 1.49583C9.65577 1.49582 9.65577 1.49582 9.65577 1.49582C9.65577 1.49582 9.65577 1.49582 9.65577 1.49582C9.65577 1.49582 9.65577 1.49582 9.65577 1.49582C9.65577 1.49582 9.65577 1.49582 9.65577 1.49582C9.65577 1.49582 9.65577 1.49582 9.65577 1.49582C9.65577 1.49582 9.65577 1.49582 9.65577 1.49582C9.65577 1.49582 9.65577 1.49582 9.65577 1.49582C9.65577 1.49582 9.65577 1.49582 9.65577 1.49582C9.65577 1.49582 9.65577 1.49582 9.65577 1.49582C9.65577 1.49582 9.65577 1.49582 9.65577 1.49582C9.65577 1.49582 9.65577 1.49582 9.65577 1.49582C9.65577 1.49582 9.65577 1.49582 9.65577 1.49582C9.65577 1.49582 9.65577 1.49582 9.65577 1.49582C9.65577 1.49582 9.65577 1.49582 9.65577 1.49582C9.65577 1.49582 9.65577 1.49582 9.65577 1.49582C9.65577 1.49582 9.65577 1.49582 9.65577 1.49582C9.65577 1.49582 9.65577 1.49582 9.65577 1.49582C9.65576 1.49582 9.65576 1.49582 9.65576 1.49582C9.65576 1.49582 9.65576 1.49582 9.65576 1.49582C9.65576 1.49582 9.65576 1.49582 9.65576 1.49582C9.65576 1.49582 9.65576 1.49582 9.65576 1.49582C9.65576 1.49582 9.65576 1.49582 9.65576 1.49582C9.65576 1.49582 9.65576 1.49581 9.65576 1.49581C9.65576 1.49581 9.65576 1.49581 9.65576 1.49581C9.65576 1.49581 9.65576 1.49581 9.65576 1.49581C9.65576 1.49581 9.65576 1.49581 9.65576 1.49581C9.65576 1.49581 9.65576 1.49581 9.65576 1.49581C9.65576 1.49581 9.65576 1.49581 9.65576 1.49581C9.65576 1.49581 9.65576 1.49581 9.65576 1.49581C9.65576 1.49581 9.65576 1.49581 9.65576 1.49581C9.65576 1.49581 9.65576 1.49581 9.65576 1.49581C9.65576 1.49581 9.65576 1.49581 9.65576 1.49581C9.65576 1.49581 9.65576 1.49581 9.65576 1.49581C9.65576 1.49581 9.65576 1.49581 9.65576 1.49581C9.65576 1.49581 9.65576 1.49581 9.65576 1.49581C9.65576 1.49581 9.65576 1.49581 9.65576 1.49581C9.65576 1.49581 9.65576 1.49581 9.65576 1.49581C9.65576 1.49581 9.65576 1.49581 9.65576 1.49581C9.65576 1.49581 9.65576 1.49581 9.65576 1.49581C9.65576 1.49581 9.65575 1.49581 9.65575 1.49581C9.65575 1.49581 9.65575 1.49581 9.65575 1.49581C9.65575 1.49581 9.65575 1.49581 9.65575 1.49581C9.65575 1.49581 9.65575 1.49581 9.65575 1.49581C9.65575 1.49581 9.65575 1.49581 9.65575 1.49581C9.65575 1.49581 9.65575 1.49581 9.65575 1.49581C9.65575 1.4958 9.65575 1.4958 9.65575 1.4958C9.65575 1.4958 9.65575 1.4958 9.65575 1.4958C9.65575 1.4958 9.65575 1.4958 9.65575 1.4958C9.65575 1.4958 9.65575 1.4958 9.65575 1.4958C9.65575 1.4958 9.65575 1.4958 9.65575 1.4958C9.65575 1.4958 9.65575 1.4958 9.65575 1.4958C9.65575 1.4958 9.65575 1.4958 9.65575 1.4958C9.65575 1.4958 9.65575 1.4958 9.65575 1.4958C9.65575 1.4958 9.65575 1.4958 9.65575 1.4958C9.65575 1.4958 9.65575 1.4958 9.65575 1.4958C9.65575 1.4958 9.65575 1.4958 9.65575 1.4958C9.65575 1.4958 9.65575 1.4958 9.65575 1.4958C9.65575 1.4958 9.65575 1.4958 9.65575 1.4958C9.65575 1.4958 9.65575 1.4958 9.65575 1.4958C9.65575 1.4958 9.65575 1.4958 9.65574 1.4958C9.65574 1.4958 9.65574 1.4958 9.65574 1.4958C9.65574 1.4958 9.65574 1.4958 9.65574 1.4958C9.65574 1.4958 9.65574 1.4958 9.65574 1.4958C9.65574 1.4958 9.65574 1.4958 9.65574 1.4958C9.65574 1.4958 9.65574 1.4958 9.65574 1.4958C9.65574 1.4958 9.65574 1.4958 9.65574 1.4958C9.65574 1.4958 9.65574 1.4958 9.65574 1.4958C9.65574 1.4958 9.65574 1.4958 9.65574 1.49579C9.65574 1.49579 9.65574 1.49579 9.65574 1.49579C9.65574 1.49579 9.65574 1.49579 9.65574 1.49579C9.65574 1.49579 9.65574 1.49579 9.65574 1.49579C9.65574 1.49579 9.65574 1.49579 9.65574 1.49579C9.65574 1.49579 9.65574 1.49579 9.65574 1.49579C9.65574 1.49579 9.65574 1.49579 9.65574 1.49579C9.65574 1.49579 9.65574 1.49579 9.65574 1.49579C9.65574 1.49579 9.65574 1.49579 9.65574 1.49579C9.65574 1.49579 9.65574 1.49579 9.65574 1.49579C9.65574 1.49579 9.65574 1.49579 9.65574 1.49579C9.65574 1.49579 9.65574 1.49579 9.65574 1.49579C9.65574 1.49579 9.65574 1.49579 9.65574 1.49579C9.65574 1.49579 9.65574 1.49579 9.65574 1.49579C9.65574 1.49579 9.65574 1.49579 9.65574 1.49579C9.65573 1.49579 9.65573 1.49579 9.65573 1.49579C9.65573 1.49579 9.65573 1.49579 9.65573 1.49579C9.65573 1.49579 9.65573 1.49579 9.65573 1.49579C9.65573 1.49579 9.65573 1.49579 9.65573 1.49579C9.65573 1.49579 9.65573 1.49579 9.65573 1.49579C9.65573 1.49579 9.65573 1.49579 9.65573 1.49579C9.65573 1.49579 9.65573 1.49579 9.65573 1.49579C9.65573 1.49579 9.65573 1.49579 9.65573 1.49579C9.65573 1.49578 9.65573 1.49578 9.65573 1.49578C9.65573 1.49578 9.65573 1.49578 9.65573 1.49578C9.65573 1.49578 9.65573 1.49578 9.65573 1.49578C9.65573 1.49578 9.65573 1.49578 9.65573 1.49578C9.65573 1.49578 9.65573 1.49578 9.65573 1.49578C9.65573 1.49578 9.65573 1.49578 9.65573 1.49578C9.65573 1.49578 9.65573 1.49578 9.65573 1.49578C9.65573 1.49578 9.65573 1.49578 9.65573 1.49578C9.65573 1.49578 9.65573 1.49578 9.65573 1.49578C9.65573 1.49578 9.65573 1.49578 9.65573 1.49578C9.65573 1.49578 9.65573 1.49578 9.65573 1.49578C9.65573 1.49578 9.65573 1.49578 9.65573 1.49578C9.65573 1.49578 9.65572 1.49578 9.65572 1.49578C9.65572 1.49578 9.65572 1.49578 9.65572 1.49578C9.65572 1.49578 9.65572 1.49578 9.65572 1.49578C9.65572 1.49578 9.65572 1.49578 9.65572 1.49578C9.65572 1.49578 9.65572 1.49578 9.65572 1.49578C9.65572 1.49578 9.65572 1.49578 9.65572 1.49578C9.65572 1.49578 9.65572 1.49578 9.65572 1.49578C9.65572 1.49578 9.65572 1.49578 9.65572 1.49578C9.65572 1.49578 9.65572 1.49578 9.65572 1.49578C9.65572 1.49578 9.65572 1.49578 9.65572 1.49578C9.65572 1.49578 9.65572 1.49578 9.65572 1.49577C9.65572 1.49577 9.65572 1.49577 9.65572 1.49577C9.65572 1.49577 9.65572 1.49577 9.65572 1.49577C9.65572 1.49577 9.65572 1.49577 9.65572 1.49577C9.65572 1.49577 9.65572 1.49577 9.65572 1.49577C9.65572 1.49577 9.65572 1.49577 9.65572 1.49577C9.65572 1.49577 9.65572 1.49577 9.65572 1.49577C9.65572 1.49577 9.65572 1.49577 9.65572 1.49577C9.65572 1.49577 9.65572 1.49577 9.65572 1.49577C9.65572 1.49577 9.65572 1.49577 9.65572 1.49577C9.65572 1.49577 9.65572 1.49577 9.65571 1.49577C9.65571 1.49577 9.65571 1.49577 9.65571 1.49577C9.65571 1.49577 9.65571 1.49577 9.65571 1.49577C9.65571 1.49577 9.65571 1.49577 9.65571 1.49577C9.65571 1.49577 9.65571 1.49577 9.65571 1.49577C9.65571 1.49577 9.65571 1.49577 9.65571 1.49577C9.65571 1.49577 9.65571 1.49577 9.65571 1.49577C9.65571 1.49577 9.65571 1.49577 9.65571 1.49577C9.65571 1.49577 9.65571 1.49577 9.65571 1.49577C9.65571 1.49577 9.65571 1.49577 9.65571 1.49577C9.65571 1.49577 9.65571 1.49577 9.65571 1.49577C9.65571 1.49577 9.65571 1.49577 9.65571 1.49577C9.65571 1.49577 9.65571 1.49577 9.65571 1.49577C9.65571 1.49576 9.65571 1.49576 9.65571 1.49576C9.65571 1.49576 9.65571 1.49576 9.65571 1.49576C9.65571 1.49576 9.65571 1.49576 9.65571 1.49576C9.65571 1.49576 9.65571 1.49576 9.65571 1.49576C9.65571 1.49576 9.65571 1.49576 9.65571 1.49576C9.65571 1.49576 9.65571 1.49576 9.65571 1.49576C9.65571 1.49576 9.65571 1.49576 9.65571 1.49576C9.65571 1.49576 9.65571 1.49576 9.65571 1.49576C9.65571 1.49576 9.65571 1.49576 9.65571 1.49576C9.65571 1.49576 9.65571 1.49576 9.65571 1.49576C9.6557 1.49576 9.6557 1.49576 9.6557 1.49576C9.6557 1.49576 9.6557 1.49576 9.6557 1.49576C9.6557 1.49576 9.6557 1.49576 9.6557 1.49576C9.6557 1.49576 9.6557 1.49576 9.6557 1.49576C9.6557 1.49576 9.6557 1.49576 9.6557 1.49576C9.6557 1.49576 9.6557 1.49576 9.6557 1.49576C9.6557 1.49576 9.6557 1.49576 9.6557 1.49576C9.6557 1.49576 9.6557 1.49576 9.6557 1.49576C9.6557 1.49576 9.6557 1.49576 9.6557 1.49576C9.6557 1.49576 9.6557 1.49576 9.6557 1.49576C9.6557 1.49576 9.6557 1.49576 9.6557 1.49576C9.6557 1.49576 9.6557 1.49576 9.6557 1.49576C9.6557 1.49576 9.6557 1.49576 9.6557 1.49575C9.6557 1.49575 9.6557 1.49575 9.6557 1.49575C9.6557 1.49575 9.6557 1.49575 9.6557 1.49575L9.31229 1.85917C9.31229 1.85917 9.31229 1.85917 9.31229 1.85917C9.31229 1.85917 9.31229 1.85917 9.31229 1.85917C9.31229 1.85917 9.31229 1.85917 9.31229 1.85917C9.31229 1.85917 9.31229 1.85917 9.31229 1.85917C9.31229 1.85917 9.31229 1.85917 9.31229 1.85917C9.31229 1.85917 9.31229 1.85917 9.31229 1.85917C9.31229 1.85917 9.31229 1.85917 9.31229 1.85917C9.31229 1.85917 9.31229 1.85917 9.31229 1.85917C9.31229 1.85917 9.31229 1.85917 9.31229 1.85917C9.31229 1.85917 9.3123 1.85917 9.3123 1.85918C9.3123 1.85918 9.3123 1.85918 9.3123 1.85918C9.3123 1.85918 9.3123 1.85918 9.3123 1.85918C9.3123 1.85918 9.3123 1.85918 9.3123 1.85918C9.3123 1.85918 9.3123 1.85918 9.3123 1.85918C9.3123 1.85918 9.3123 1.85918 9.3123 1.85918C9.3123 1.85918 9.3123 1.85918 9.3123 1.85918C9.3123 1.85918 9.3123 1.85918 9.3123 1.85918C9.3123 1.85918 9.3123 1.85918 9.3123 1.85918C9.3123 1.85918 9.3123 1.85918 9.3123 1.85918C9.3123 1.85918 9.3123 1.85918 9.3123 1.85918C9.3123 1.85918 9.3123 1.85918 9.3123 1.85918C9.3123 1.85918 9.3123 1.85918 9.3123 1.85918C9.3123 1.85918 9.3123 1.85918 9.3123 1.85918C9.3123 1.85918 9.3123 1.85918 9.3123 1.85918C9.3123 1.85918 9.3123 1.85918 9.3123 1.85918C9.3123 1.85918 9.3123 1.85918 9.3123 1.85918C9.3123 1.85918 9.3123 1.85918 9.3123 1.85918C9.3123 1.85918 9.3123 1.85918 9.3123 1.85918C9.3123 1.85918 9.3123 1.85918 9.3123 1.85918C9.3123 1.85918 9.3123 1.85918 9.31231 1.85918C9.31231 1.85918 9.31231 1.85918 9.31231 1.85918C9.31231 1.85918 9.31231 1.85918 9.31231 1.85918C9.31231 1.85918 9.31231 1.85919 9.31231 1.85919C9.31231 1.85919 9.31231 1.85919 9.31231 1.85919C9.31231 1.85919 9.31231 1.85919 9.31231 1.85919C9.31231 1.85919 9.31231 1.85919 9.31231 1.85919C9.31231 1.85919 9.31231 1.85919 9.31231 1.85919C9.31231 1.85919 9.31231 1.85919 9.31231 1.85919C9.31231 1.85919 9.31231 1.85919 9.31231 1.85919C9.31231 1.85919 9.31231 1.85919 9.31231 1.85919C9.31231 1.85919 9.31231 1.85919 9.31231 1.85919C9.31231 1.85919 9.31231 1.85919 9.31231 1.85919C9.31231 1.85919 9.31231 1.85919 9.31231 1.85919C9.31231 1.85919 9.31231 1.85919 9.31231 1.85919C9.31231 1.85919 9.31231 1.85919 9.31231 1.85919C9.31231 1.85919 9.31231 1.85919 9.31231 1.85919C9.31231 1.85919 9.31231 1.85919 9.31231 1.85919C9.31231 1.85919 9.31231 1.85919 9.31231 1.85919C9.31231 1.85919 9.31231 1.85919 9.31231 1.85919C9.31231 1.85919 9.31231 1.85919 9.31231 1.85919C9.31231 1.85919 9.31231 1.85919 9.31231 1.85919C9.31231 1.85919 9.31231 1.85919 9.31231 1.85919C9.31232 1.85919 9.31232 1.85919 9.31232 1.85919C9.31232 1.85919 9.31232 1.85919 9.31232 1.85919C9.31232 1.85919 9.31232 1.85919 9.31232 1.85919C9.31232 1.8592 9.31232 1.8592 9.31232 1.8592C9.31232 1.8592 9.31232 1.8592 9.31232 1.8592C9.31232 1.8592 9.31232 1.8592 9.31232 1.8592C9.31232 1.8592 9.31232 1.8592 9.31232 1.8592C9.31232 1.8592 9.31232 1.8592 9.31232 1.8592C9.31232 1.8592 9.31232 1.8592 9.31232 1.8592C9.31232 1.8592 9.31232 1.8592 9.31232 1.8592C9.31232 1.8592 9.31232 1.8592 9.31232 1.8592C9.31232 1.8592 9.31232 1.8592 9.31232 1.8592C9.31232 1.8592 9.31232 1.8592 9.31232 1.8592C9.31232 1.8592 9.31232 1.8592 9.31232 1.8592C9.31232 1.8592 9.31232 1.8592 9.31232 1.8592C9.31232 1.8592 9.31232 1.8592 9.31232 1.8592C9.31232 1.8592 9.31232 1.8592 9.31232 1.8592C9.31232 1.8592 9.31232 1.8592 9.31232 1.8592C9.31232 1.8592 9.31232 1.8592 9.31232 1.8592C9.31232 1.8592 9.31232 1.8592 9.31232 1.8592C9.31232 1.8592 9.31233 1.8592 9.31233 1.8592C9.31233 1.8592 9.31233 1.8592 9.31233 1.8592C9.31233 1.8592 9.31233 1.8592 9.31233 1.8592C9.31233 1.8592 9.31233 1.8592 9.31233 1.8592C9.31233 1.8592 9.31233 1.8592 9.31233 1.8592C9.31233 1.8592 9.31233 1.85921 9.31233 1.85921C9.31233 1.85921 9.31233 1.85921 9.31233 1.85921C9.31233 1.85921 9.31233 1.85921 9.31233 1.85921C9.31233 1.85921 9.31233 1.85921 9.31233 1.85921C9.31233 1.85921 9.31233 1.85921 9.31233 1.85921C9.31233 1.85921 9.31233 1.85921 9.31233 1.85921C9.31233 1.85921 9.31233 1.85921 9.31233 1.85921C9.31233 1.85921 9.31233 1.85921 9.31233 1.85921C9.31233 1.85921 9.31233 1.85921 9.31233 1.85921C9.31233 1.85921 9.31233 1.85921 9.31233 1.85921C9.31233 1.85921 9.31233 1.85921 9.31233 1.85921C9.31233 1.85921 9.31233 1.85921 9.31233 1.85921C9.31233 1.85921 9.31233 1.85921 9.31233 1.85921C9.31233 1.85921 9.31233 1.85921 9.31233 1.85921C9.31233 1.85921 9.31233 1.85921 9.31233 1.85921C9.31233 1.85921 9.31233 1.85921 9.31234 1.85921C9.31234 1.85921 9.31234 1.85921 9.31234 1.85921C9.31234 1.85921 9.31234 1.85921 9.31234 1.85921C9.31234 1.85921 9.31234 1.85921 9.31234 1.85921C9.31234 1.85921 9.31234 1.85921 9.31234 1.85921C9.31234 1.85921 9.31234 1.85921 9.31234 1.85921C9.31234 1.85921 9.31234 1.85921 9.31234 1.85921C9.31234 1.85921 9.31234 1.85921 9.31234 1.85922C9.31234 1.85922 9.31234 1.85922 9.31234 1.85922C9.31234 1.85922 9.31234 1.85922 9.31234 1.85922C9.31234 1.85922 9.31234 1.85922 9.31234 1.85922C9.31234 1.85922 9.31234 1.85922 9.31234 1.85922C9.31234 1.85922 9.31234 1.85922 9.31234 1.85922C9.31234 1.85922 9.31234 1.85922 9.31234 1.85922C9.31234 1.85922 9.31234 1.85922 9.31234 1.85922C9.31234 1.85922 9.31234 1.85922 9.31234 1.85922C9.31234 1.85922 9.31234 1.85922 9.31234 1.85922C9.31234 1.85922 9.31234 1.85922 9.31234 1.85922C9.31234 1.85922 9.31234 1.85922 9.31234 1.85922C9.31234 1.85922 9.31234 1.85922 9.31234 1.85922C9.31234 1.85922 9.31234 1.85922 9.31234 1.85922C9.31234 1.85922 9.31234 1.85922 9.31234 1.85922C9.31234 1.85922 9.31234 1.85922 9.31234 1.85922C9.31235 1.85922 9.31235 1.85922 9.31235 1.85922C9.31235 1.85922 9.31235 1.85922 9.31235 1.85922C9.31235 1.85922 9.31235 1.85922 9.31235 1.85922C9.31235 1.85922 9.31235 1.85922 9.31235 1.85922C9.31235 1.85922 9.31235 1.85922 9.31235 1.85922C9.31235 1.85922 9.31235 1.85922 9.31235 1.85922C9.31235 1.85922 9.31235 1.85922 9.31235 1.85922C9.31235 1.85922 9.31235 1.85923 9.31235 1.85923C9.31235 1.85923 9.31235 1.85923 9.31235 1.85923C9.31235 1.85923 9.31235 1.85923 9.31235 1.85923C9.31235 1.85923 9.31235 1.85923 9.31235 1.85923C9.31235 1.85923 9.31235 1.85923 9.31235 1.85923C9.31235 1.85923 9.31235 1.85923 9.31235 1.85923C9.31235 1.85923 9.31235 1.85923 9.31235 1.85923C9.31235 1.85923 9.31235 1.85923 9.31235 1.85923C9.31235 1.85923 9.31235 1.85923 9.31235 1.85923C9.31235 1.85923 9.31235 1.85923 9.31235 1.85923C9.31235 1.85923 9.31235 1.85923 9.31235 1.85923C9.31235 1.85923 9.31235 1.85923 9.31235 1.85923C9.31235 1.85923 9.31235 1.85923 9.31235 1.85923C9.31235 1.85923 9.31236 1.85923 9.31236 1.85923C9.31236 1.85923 9.31236 1.85923 9.31236 1.85923C9.31236 1.85923 9.31236 1.85923 9.31236 1.85923C9.31236 1.85923 9.31236 1.85923 9.31236 1.85923C9.31236 1.85923 9.31236 1.85923 9.31236 1.85923C9.31236 1.85923 9.31236 1.85923 9.31236 1.85923C9.31236 1.85923 9.31236 1.85923 9.31236 1.85923C9.31236 1.85923 9.31236 1.85923 9.31236 1.85923C9.31236 1.85923 9.31236 1.85923 9.31236 1.85923C9.31236 1.85923 9.31236 1.85923 9.31236 1.85923C9.31236 1.85924 9.31236 1.85924 9.31236 1.85924C9.31236 1.85924 9.31236 1.85924 9.31236 1.85924C9.31236 1.85924 9.31236 1.85924 9.31236 1.85924C9.31236 1.85924 9.31236 1.85924 9.31236 1.85924C9.31236 1.85924 9.31236 1.85924 9.31236 1.85924C9.31236 1.85924 9.31236 1.85924 9.31236 1.85924C9.31236 1.85924 9.31236 1.85924 9.31236 1.85924C9.31236 1.85924 9.31236 1.85924 9.31236 1.85924C9.31236 1.85924 9.31236 1.85924 9.31236 1.85924C9.31236 1.85924 9.31236 1.85924 9.31236 1.85924C9.31236 1.85924 9.31236 1.85924 9.31236 1.85924C9.31236 1.85924 9.31236 1.85924 9.31236 1.85924C9.31236 1.85924 9.31236 1.85924 9.31237 1.85924C9.31237 1.85924 9.31237 1.85924 9.31237 1.85924C9.31237 1.85924 9.31237 1.85924 9.31237 1.85924C9.31237 1.85924 9.31237 1.85924 9.31237 1.85924C9.31237 1.85924 9.31237 1.85924 9.31237 1.85924C9.31237 1.85924 9.31237 1.85924 9.31237 1.85924C9.31237 1.85924 9.31237 1.85924 9.31237 1.85924C9.31237 1.85924 9.31237 1.85924 9.31237 1.85924C9.31237 1.85924 9.31237 1.85924 9.31237 1.85924C9.31237 1.85924 9.31237 1.85924 9.31237 1.85924C9.31237 1.85924 9.31237 1.85924 9.31237 1.85925C9.31237 1.85925 9.31237 1.85925 9.31237 1.85925C9.31237 1.85925 9.31237 1.85925 9.31237 1.85925C9.31237 1.85925 9.31237 1.85925 9.31237 1.85925C9.31237 1.85925 9.31237 1.85925 9.31237 1.85925C9.31237 1.85925 9.31237 1.85925 9.31237 1.85925C9.31237 1.85925 9.31237 1.85925 9.31237 1.85925C9.31237 1.85925 9.31237 1.85925 9.31237 1.85925C9.31237 1.85925 9.31237 1.85925 9.31237 1.85925C9.31237 1.85925 9.31237 1.85925 9.31237 1.85925C9.31237 1.85925 9.31237 1.85925 9.31237 1.85925C9.31238 1.85925 9.31238 1.85925 9.31238 1.85925C9.31238 1.85925 9.31238 1.85925 9.31238 1.85925C9.31238 1.85925 9.31238 1.85925 9.31238 1.85925C9.31238 1.85925 9.31238 1.85925 9.31238 1.85925C9.31238 1.85925 9.31238 1.85925 9.31238 1.85925C9.31238 1.85925 9.31238 1.85925 9.31238 1.85925C9.31238 1.85925 9.31238 1.85925 9.31238 1.85925C9.31238 1.85925 9.31238 1.85925 9.31238 1.85925C9.31238 1.85925 9.31238 1.85925 9.31238 1.85925C9.31238 1.85925 9.31238 1.85925 9.31238 1.85925C9.31238 1.85925 9.31238 1.85925 9.31238 1.85925C9.31238 1.85925 9.31238 1.85925 9.31238 1.85925C9.31238 1.85926 9.31238 1.85926 9.31238 1.85926C9.31238 1.85926 9.31238 1.85926 9.31238 1.85926C9.31238 1.85926 9.31238 1.85926 9.31238 1.85926C9.31238 1.85926 9.31238 1.85926 9.31238 1.85926C9.31238 1.85926 9.31238 1.85926 9.31238 1.85926C9.31238 1.85926 9.31238 1.85926 9.31238 1.85926C9.31238 1.85926 9.31238 1.85926 9.31238 1.85926C9.31238 1.85926 9.31238 1.85926 9.31238 1.85926C9.31238 1.85926 9.31238 1.85926 9.31238 1.85926C9.31238 1.85926 9.31238 1.85926 9.31238 1.85926C9.31238 1.85926 9.31239 1.85926 9.31239 1.85926C9.31239 1.85926 9.31239 1.85926 9.31239 1.85926C9.31239 1.85926 9.31239 1.85926 9.31239 1.85926C9.31239 1.85926 9.31239 1.85926 9.31239 1.85926C9.31239 1.85926 9.31239 1.85926 9.31239 1.85926C9.31239 1.85926 9.31239 1.85926 9.31239 1.85926C9.31239 1.85926 9.31239 1.85926 9.31239 1.85926C9.31239 1.85926 9.31239 1.85926 9.31239 1.85926C9.31239 1.85926 9.31239 1.85926 9.31239 1.85926C9.31239 1.85926 9.31239 1.85926 9.31239 1.85926C9.31239 1.85926 9.31239 1.85926 9.31239 1.85926C9.31239 1.85926 9.31239 1.85926 9.31239 1.85926C9.31239 1.85926 9.31239 1.85926 9.31239 1.85927C9.31239 1.85927 9.31239 1.85927 9.31239 1.85927C9.31239 1.85927 9.31239 1.85927 9.31239 1.85927C9.31239 1.85927 9.31239 1.85927 9.31239 1.85927C9.31239 1.85927 9.31239 1.85927 9.31239 1.85927C9.31239 1.85927 9.31239 1.85927 9.31239 1.85927C9.31239 1.85927 9.31239 1.85927 9.31239 1.85927C9.31239 1.85927 9.31239 1.85927 9.31239 1.85927C9.31239 1.85927 9.31239 1.85927 9.3124 1.85927C9.3124 1.85927 9.3124 1.85927 9.3124 1.85927C9.3124 1.85927 9.3124 1.85927 9.3124 1.85927C9.3124 1.85927 9.3124 1.85927 9.3124 1.85927C9.3124 1.85927 9.3124 1.85927 9.3124 1.85927C9.3124 1.85927 9.3124 1.85927 9.3124 1.85927C9.3124 1.85927 9.3124 1.85927 9.3124 1.85927C9.3124 1.85927 9.3124 1.85927 9.3124 1.85927C9.3124 1.85927 9.3124 1.85927 9.3124 1.85927C9.3124 1.85927 9.3124 1.85927 9.3124 1.85927C9.3124 1.85927 9.3124 1.85927 9.3124 1.85927C9.3124 1.85927 9.3124 1.85927 9.3124 1.85927C9.3124 1.85927 9.3124 1.85927 9.3124 1.85927C9.3124 1.85927 9.3124 1.85927 9.3124 1.85927C9.3124 1.85927 9.3124 1.85927 9.3124 1.85927C9.3124 1.85927 9.3124 1.85928 9.3124 1.85928C9.3124 1.85928 9.3124 1.85928 9.3124 1.85928C9.3124 1.85928 9.3124 1.85928 9.3124 1.85928C9.3124 1.85928 9.3124 1.85928 9.3124 1.85928C9.3124 1.85928 9.3124 1.85928 9.3124 1.85928C9.3124 1.85928 9.3124 1.85928 9.3124 1.85928C9.3124 1.85928 9.3124 1.85928 9.3124 1.85928C9.3124 1.85928 9.3124 1.85928 9.3124 1.85928C9.31241 1.85928 9.31241 1.85928 9.31241 1.85928C9.31241 1.85928 9.31241 1.85928 9.31241 1.85928C9.31241 1.85928 9.31241 1.85928 9.31241 1.85928C9.31241 1.85928 9.31241 1.85928 9.31241 1.85928C9.31241 1.85928 9.31241 1.85928 9.31241 1.85928C9.31241 1.85928 9.31241 1.85928 9.31241 1.85928C9.31241 1.85928 9.31241 1.85928 9.31241 1.85928C9.31241 1.85928 9.31241 1.85928 9.31241 1.85928C9.31241 1.85928 9.31241 1.85928 9.31241 1.85928C9.31241 1.85928 9.31241 1.85928 9.31241 1.85928C9.31241 1.85928 9.31241 1.85928 9.31241 1.85928C9.31241 1.85928 9.31241 1.85928 9.31241 1.85928C9.31241 1.85928 9.31241 1.85928 9.31241 1.85928C9.31241 1.85928 9.31241 1.85928 9.31241 1.85928C9.31241 1.85928 9.31241 1.85928 9.31241 1.85929C9.31241 1.85929 9.31241 1.85929 9.31241 1.85929C9.31241 1.85929 9.31241 1.85929 9.31241 1.85929C9.31241 1.85929 9.31241 1.85929 9.31241 1.85929C9.31241 1.85929 9.31241 1.85929 9.31241 1.85929C9.31241 1.85929 9.31241 1.85929 9.31241 1.85929C9.31241 1.85929 9.31242 1.85929 9.31242 1.85929C9.31242 1.85929 9.31242 1.85929 9.31242 1.85929C9.31242 1.85929 9.31242 1.85929 9.31242 1.85929C9.31242 1.85929 9.31242 1.85929 9.31242 1.85929C9.31242 1.85929 9.31242 1.85929 9.31242 1.85929C9.31242 1.85929 9.31242 1.85929 9.31242 1.85929C9.31242 1.85929 9.31242 1.85929 9.31242 1.85929C9.31242 1.85929 9.31242 1.85929 9.31242 1.85929C9.31242 1.85929 9.31242 1.85929 9.31242 1.85929C9.31242 1.85929 9.31242 1.85929 9.31242 1.85929C9.31242 1.85929 9.31242 1.85929 9.31242 1.85929C9.31242 1.85929 9.31242 1.85929 9.31242 1.85929C9.31242 1.85929 9.31242 1.85929 9.31242 1.85929C9.31242 1.85929 9.31242 1.85929 9.31242 1.85929C9.31242 1.85929 9.31242 1.85929 9.31242 1.85929C9.31242 1.85929 9.31242 1.85929 9.31242 1.85929C9.31242 1.85929 9.31242 1.85929 9.31242 1.85929C9.31242 1.8593 9.31242 1.8593 9.31242 1.8593C9.31242 1.8593 9.31242 1.8593 9.31242 1.8593C9.31242 1.8593 9.31242 1.8593 9.31242 1.8593C9.31242 1.8593 9.31242 1.8593 9.31242 1.8593C9.31242 1.8593 9.31242 1.8593 9.31242 1.8593C9.31242 1.8593 9.31242 1.8593 9.31243 1.8593C9.31243 1.8593 9.31243 1.8593 9.31243 1.8593C9.31243 1.8593 9.31243 1.8593 9.31243 1.8593C9.31243 1.8593 9.31243 1.8593 9.31243 1.8593C9.31243 1.8593 9.31243 1.8593 9.31243 1.8593C9.31243 1.8593 9.31243 1.8593 9.31243 1.8593C9.31243 1.8593 9.31243 1.8593 9.31243 1.8593C9.31243 1.8593 9.31243 1.8593 9.31243 1.8593C9.31243 1.8593 9.31243 1.8593 9.31243 1.8593C9.31243 1.8593 9.31243 1.8593 9.31243 1.8593C9.31243 1.8593 9.31243 1.8593 9.31243 1.8593C9.31243 1.8593 9.31243 1.8593 9.31243 1.8593C9.31243 1.8593 9.31243 1.8593 9.31243 1.8593C9.31243 1.8593 9.31243 1.8593 9.31243 1.8593C9.31243 1.8593 9.31243 1.8593 9.31243 1.8593C9.31243 1.8593 9.31243 1.8593 9.31243 1.8593C9.31243 1.8593 9.31243 1.8593 9.31243 1.8593C9.31243 1.8593 9.31243 1.8593 9.31243 1.85931C9.31243 1.85931 9.31243 1.85931 9.31243 1.85931C9.31243 1.85931 9.31243 1.85931 9.31243 1.85931C9.31243 1.85931 9.31243 1.85931 9.31243 1.85931C9.31244 1.85931 9.31244 1.85931 9.31244 1.85931C9.31244 1.85931 9.31244 1.85931 9.31244 1.85931C9.31244 1.85931 9.31244 1.85931 9.31244 1.85931C9.31244 1.85931 9.31244 1.85931 9.31244 1.85931C9.31244 1.85931 9.31244 1.85931 9.31244 1.85931C9.31244 1.85931 9.31244 1.85931 9.31244 1.85931C9.31244 1.85931 9.31244 1.85931 9.31244 1.85931C9.31244 1.85931 9.31244 1.85931 9.31244 1.85931C9.31244 1.85931 9.31244 1.85931 9.31244 1.85931C9.31244 1.85931 9.31244 1.85931 9.31244 1.85931C9.31244 1.85931 9.31244 1.85931 9.31244 1.85931C9.31244 1.85931 9.31244 1.85931 9.31244 1.85931C9.31244 1.85931 9.31244 1.85931 9.31244 1.85931C9.31244 1.85931 9.31244 1.85931 9.31244 1.85931C9.31244 1.85931 9.31244 1.85931 9.31244 1.85931C9.31244 1.85931 9.31244 1.85931 9.31244 1.85931C9.31244 1.85931 9.31244 1.85931 9.31244 1.85931C9.31244 1.85931 9.31244 1.85931 9.31244 1.85931C9.31244 1.85931 9.31244 1.85931 9.31244 1.85931C9.31244 1.85931 9.31244 1.85932 9.31244 1.85932C9.31244 1.85932 9.31244 1.85932 9.31244 1.85932C9.31244 1.85932 9.31244 1.85932 9.31244 1.85932C9.31244 1.85932 9.31245 1.85932 9.31245 1.85932C9.31245 1.85932 9.31245 1.85932 9.31245 1.85932C9.31245 1.85932 9.31245 1.85932 9.31245 1.85932C9.31245 1.85932 9.31245 1.85932 9.31245 1.85932C9.31245 1.85932 9.31245 1.85932 9.31245 1.85932C9.31245 1.85932 9.31245 1.85932 9.31245 1.85932C9.31245 1.85932 9.31245 1.85932 9.31245 1.85932C9.31245 1.85932 9.31245 1.85932 9.31245 1.85932C9.31245 1.85932 9.31245 1.85932 9.31245 1.85932C9.31245 1.85932 9.31245 1.85932 9.31245 1.85932C9.31245 1.85932 9.31245 1.85932 9.31245 1.85932C9.31245 1.85932 9.31245 1.85932 9.31245 1.85932C9.31245 1.85932 9.31245 1.85932 9.31245 1.85932C9.31245 1.85932 9.31245 1.85932 9.31245 1.85932C9.31245 1.85932 9.31245 1.85932 9.31245 1.85932C9.31245 1.85932 9.31245 1.85932 9.31245 1.85932C9.31245 1.85932 9.31245 1.85932 9.31245 1.85932C9.31245 1.85932 9.31245 1.85932 9.31245 1.85932C9.31245 1.85932 9.31245 1.85932 9.31245 1.85932C9.31245 1.85932 9.31245 1.85932 9.31245 1.85932C9.31245 1.85933 9.31245 1.85933 9.31246 1.85933C9.31246 1.85933 9.31246 1.85933 9.31246 1.85933C9.31246 1.85933 9.31246 1.85933 9.31246 1.85933C9.31246 1.85933 9.31246 1.85933 9.31246 1.85933C9.31246 1.85933 9.31246 1.85933 9.31246 1.85933C9.31246 1.85933 9.31246 1.85933 9.31246 1.85933C9.31246 1.85933 9.31246 1.85933 9.31246 1.85933C9.31246 1.85933 9.31246 1.85933 9.31246 1.85933C9.31246 1.85933 9.31246 1.85933 9.31246 1.85933C9.31246 1.85933 9.31246 1.85933 9.31246 1.85933C9.31246 1.85933 9.31246 1.85933 9.31246 1.85933C9.31246 1.85933 9.31246 1.85933 9.31246 1.85933C9.31246 1.85933 9.31246 1.85933 9.31246 1.85933C9.31246 1.85933 9.31246 1.85933 9.31246 1.85933C9.31246 1.85933 9.31246 1.85933 9.31246 1.85933C9.31246 1.85933 9.31246 1.85933 9.31246 1.85933C9.31246 1.85933 9.31246 1.85933 9.31246 1.85933C9.31246 1.85933 9.31246 1.85933 9.31246 1.85933C9.31246 1.85933 9.31246 1.85933 9.31246 1.85933C9.31246 1.85933 9.31246 1.85933 9.31246 1.85933C9.31246 1.85933 9.31246 1.85933 9.31246 1.85933C9.31246 1.85933 9.31246 1.85933 9.31246 1.85933C9.31246 1.85933 9.31246 1.85934 9.31246 1.85934C9.31247 1.85934 9.31247 1.85934 9.31247 1.85934C9.31247 1.85934 9.31247 1.85934 9.31247 1.85934C9.31247 1.85934 9.31247 1.85934 9.31247 1.85934C9.31247 1.85934 9.31247 1.85934 9.31247 1.85934C9.31247 1.85934 9.31247 1.85934 9.31247 1.85934C9.31247 1.85934 9.31247 1.85934 9.31247 1.85934C9.31247 1.85934 9.31247 1.85934 9.31247 1.85934C9.31247 1.85934 9.31247 1.85934 9.31247 1.85934C9.31247 1.85934 9.31247 1.85934 9.31247 1.85934C9.31247 1.85934 9.31247 1.85934 9.31247 1.85934C9.31247 1.85934 9.31247 1.85934 9.31247 1.85934C9.31247 1.85934 9.31247 1.85934 9.31247 1.85934C9.31247 1.85934 9.31247 1.85934 9.31247 1.85934C9.31247 1.85934 9.31247 1.85934 9.31247 1.85934C9.31247 1.85934 9.31247 1.85934 9.31247 1.85934C9.31247 1.85934 9.31247 1.85934 9.31247 1.85934C9.31247 1.85934 9.31247 1.85934 9.31247 1.85934C9.31247 1.85934 9.31247 1.85934 9.31247 1.85934C9.31247 1.85934 9.31247 1.85934 9.31247 1.85934C9.31247 1.85934 9.31247 1.85934 9.31247 1.85934C9.31247 1.85934 9.31248 1.85934 9.31248 1.85934C9.31248 1.85934 9.31248 1.85934 9.31248 1.85934C9.31248 1.85935 9.31248 1.85935 9.31248 1.85935C9.31248 1.85935 9.31248 1.85935 9.31248 1.85935C9.31248 1.85935 9.31248 1.85935 9.31248 1.85935C9.31248 1.85935 9.31248 1.85935 9.31248 1.85935C9.31248 1.85935 9.31248 1.85935 9.31248 1.85935C9.31248 1.85935 9.31248 1.85935 9.31248 1.85935C9.31248 1.85935 9.31248 1.85935 9.31248 1.85935C9.31248 1.85935 9.31248 1.85935 9.31248 1.85935C9.31248 1.85935 9.31248 1.85935 9.31248 1.85935C9.31248 1.85935 9.31248 1.85935 9.31248 1.85935C9.31248 1.85935 9.31248 1.85935 9.31248 1.85935C9.31248 1.85935 9.31248 1.85935 9.31248 1.85935C9.31248 1.85935 9.31248 1.85935 9.31248 1.85935C9.31248 1.85935 9.31248 1.85935 9.31248 1.85935C9.31248 1.85935 9.31248 1.85935 9.31248 1.85935C9.31248 1.85935 9.31248 1.85935 9.31248 1.85935C9.31248 1.85935 9.31248 1.85935 9.31248 1.85935C9.31248 1.85935 9.31248 1.85935 9.31248 1.85935C9.31248 1.85935 9.31248 1.85935 9.31248 1.85935C9.31248 1.85935 9.31248 1.85935 9.31248 1.85935C9.31248 1.85935 9.31248 1.85935 9.31249 1.85935C9.31249 1.85935 9.31249 1.85935 9.31249 1.85935C9.31249 1.85935 9.31249 1.85935 9.31249 1.85936C9.31249 1.85936 9.31249 1.85936 9.31249 1.85936C9.31249 1.85936 9.31249 1.85936 9.31249 1.85936C9.31249 1.85936 9.31249 1.85936 9.31249 1.85936C9.31249 1.85936 9.31249 1.85936 9.31249 1.85936C9.31249 1.85936 9.31249 1.85936 9.31249 1.85936C9.31249 1.85936 9.31249 1.85936 9.31249 1.85936C9.31249 1.85936 9.31249 1.85936 9.31249 1.85936C9.31249 1.85936 9.31249 1.85936 9.31249 1.85936C9.31249 1.85936 9.31249 1.85936 9.31249 1.85936C9.31249 1.85936 9.31249 1.85936 9.31249 1.85936C9.31249 1.85936 9.31249 1.85936 9.31249 1.85936C9.31249 1.85936 9.31249 1.85936 9.31249 1.85936C9.31249 1.85936 9.31249 1.85936 9.31249 1.85936C9.31249 1.85936 9.31249 1.85936 9.31249 1.85936C9.31249 1.85936 9.31249 1.85936 9.31249 1.85936C9.31249 1.85936 9.31249 1.85936 9.31249 1.85936C9.31249 1.85936 9.31249 1.85936 9.31249 1.85936C9.31249 1.85936 9.31249 1.85936 9.31249 1.85936C9.3125 1.85936 9.3125 1.85936 9.3125 1.85936C9.3125 1.85936 9.3125 1.85936 9.3125 1.85936C9.3125 1.85936 9.3125 1.85936 9.3125 1.85936C9.3125 1.85936 9.3125 1.85936 9.3125 1.85936C9.3125 1.85937 9.3125 1.85937 9.3125 1.85937C9.3125 1.85937 9.3125 1.85937 9.3125 1.85937C9.3125 1.85937 9.3125 1.85937 9.3125 1.85937C9.3125 1.85937 9.3125 1.85937 9.3125 1.85937C9.3125 1.85937 9.3125 1.85937 9.3125 1.85937C9.3125 1.85937 9.3125 1.85937 9.3125 1.85937C9.3125 1.85937 9.3125 1.85937 9.3125 1.85937C9.3125 1.85937 9.3125 1.85937 9.3125 1.85937C9.3125 1.85937 9.3125 1.85937 9.3125 1.85937C9.3125 1.85937 9.3125 1.85937 9.3125 1.85937C9.3125 1.85937 9.3125 1.85937 9.3125 1.85937C9.3125 1.85937 9.3125 1.85937 9.3125 1.85937C9.3125 1.85937 9.3125 1.85937 9.3125 1.85937C9.3125 1.85937 9.3125 1.85937 9.3125 1.85937C9.3125 1.85937 9.3125 1.85937 9.3125 1.85937C9.3125 1.85937 9.3125 1.85937 9.3125 1.85937C9.3125 1.85937 9.3125 1.85937 9.3125 1.85937C9.3125 1.85937 9.3125 1.85937 9.3125 1.85937C9.3125 1.85937 9.31251 1.85937 9.31251 1.85937C9.31251 1.85937 9.31251 1.85937 9.31251 1.85937C9.31251 1.85937 9.31251 1.85937 9.31251 1.85937C9.31251 1.85937 9.31251 1.85937 9.31251 1.85937C9.31251 1.85937 9.31251 1.85938 9.31251 1.85938C9.31251 1.85938 9.31251 1.85938 9.31251 1.85938C9.31251 1.85938 9.31251 1.85938 9.31251 1.85938C9.31251 1.85938 9.31251 1.85938 9.31251 1.85938C9.31251 1.85938 9.31251 1.85938 9.31251 1.85938C9.31251 1.85938 9.31251 1.85938 9.31251 1.85938C9.31251 1.85938 9.31251 1.85938 9.31251 1.85938C9.31251 1.85938 9.31251 1.85938 9.31251 1.85938C9.31251 1.85938 9.31251 1.85938 9.31251 1.85938C9.31251 1.85938 9.31251 1.85938 9.31251 1.85938C9.31251 1.85938 9.31251 1.85938 9.31251 1.85938C9.31251 1.85938 9.31251 1.85938 9.31251 1.85938C9.31251 1.85938 9.31251 1.85938 9.31251 1.85938C9.31251 1.85938 9.31251 1.85938 9.31251 1.85938C9.31251 1.85938 9.31251 1.85938 9.31251 1.85938C9.31251 1.85938 9.31251 1.85938 9.31251 1.85938C9.31251 1.85938 9.31251 1.85938 9.31252 1.85938C9.31252 1.85938 9.31252 1.85938 9.31252 1.85938C9.31252 1.85938 9.31252 1.85938 9.31252 1.85938C9.31252 1.85938 9.31252 1.85938 9.31252 1.85938C9.31252 1.85938 9.31252 1.85938 9.31252 1.85938C9.31252 1.85938 9.31252 1.85938 9.31252 1.85938C9.31252 1.85938 9.31252 1.85938 9.31252 1.85938C9.31252 1.85939 9.31252 1.85939 9.31252 1.85939C9.31252 1.85939 9.31252 1.85939 9.31252 1.85939C9.31252 1.85939 9.31252 1.85939 9.31252 1.85939C9.31252 1.85939 9.31252 1.85939 9.31252 1.85939C9.31252 1.85939 9.31252 1.85939 9.31252 1.85939C9.31252 1.85939 9.31252 1.85939 9.31252 1.85939C9.31252 1.85939 9.31252 1.85939 9.31252 1.85939C9.31252 1.85939 9.31252 1.85939 9.31252 1.85939C9.31252 1.85939 9.31252 1.85939 9.31252 1.85939C9.31252 1.85939 9.31252 1.85939 9.31252 1.85939C9.31252 1.85939 9.31252 1.85939 9.31252 1.85939C9.31252 1.85939 9.31252 1.85939 9.31252 1.85939C9.31252 1.85939 9.31252 1.85939 9.31252 1.85939C9.31252 1.85939 9.31252 1.85939 9.31252 1.85939C9.31252 1.85939 9.31252 1.85939 9.31252 1.85939C9.31252 1.85939 9.31252 1.85939 9.31252 1.85939C9.31253 1.85939 9.31253 1.85939 9.31253 1.85939C9.31253 1.85939 9.31253 1.85939 9.31253 1.85939C9.31253 1.85939 9.31253 1.85939 9.31253 1.85939C9.31253 1.85939 9.31253 1.85939 9.31253 1.85939C9.31253 1.85939 9.31253 1.85939 9.31253 1.85939C9.31253 1.85939 9.31253 1.85939 9.31253 1.85939C9.31253 1.85939 9.31253 1.85939 9.31253 1.8594C9.31253 1.8594 9.31253 1.8594 9.31253 1.8594C9.31253 1.8594 9.31253 1.8594 9.31253 1.8594C9.31253 1.8594 9.31253 1.8594 9.31253 1.8594C9.31253 1.8594 9.31253 1.8594 9.31253 1.8594C9.31253 1.8594 9.31253 1.8594 9.31253 1.8594C9.31253 1.8594 9.31253 1.8594 9.31253 1.8594L9.65594 1.49598ZM9.3194 1.48973C8.50296 2.20572 6.50924 4.05022 4.71774 6.48236C2.93071 8.90842 1.31849 11.9545 1.31849 15.068H1.81849C1.81849 12.1153 3.35437 9.17634 5.12032 6.77889C6.88179 4.38751 8.84595 2.56996 9.64907 1.86565L9.3194 1.48973ZM1.31849 15.068C1.31849 19.5791 4.98708 23.2475 9.49799 23.2475V22.7475C5.26321 22.7475 1.81849 19.3029 1.81849 15.068H1.31849ZM9.49799 23.2475C14.0089 23.2475 17.6775 19.5789 17.6775 15.068H17.1775C17.1775 19.3027 13.7328 22.7475 9.49799 22.7475V23.2475ZM17.6775 15.0681C17.6785 12.2135 16.0528 9.18936 14.2613 6.71539C12.463 4.23194 10.4641 2.25788 9.65572 1.49578L9.31275 1.8596C10.1102 2.61141 12.084 4.56112 13.8563 7.00865C15.6355 9.46566 17.1784 12.3797 17.1775 15.0679L17.6775 15.0681Z" fill="#4AF6CD"/>
</svg>
