<svg xmlns="http://www.w3.org/2000/svg" viewBox="0 0 30.6 40.17"><defs><style>.cls-1{fill:#303393;}</style></defs><g id="Слой_2" data-name="Слой 2"><g id="Слой_560" data-name="Слой 560"><path class="cls-1" d="M15.3,0A15.31,15.31,0,0,0,0,15.3c0,5.44,1.66,7.63,9.62,18.12l4.74,6.28a1.19,1.19,0,0,0,.94.47,1.17,1.17,0,0,0,.94-.48C18,37.32,19.58,35.26,21,33.45c8-10.53,9.64-12.72,9.64-18.15A15.32,15.32,0,0,0,15.3,0Zm3.78,32L15.3,37l-3.81-5C3.75,21.79,2.35,20,2.35,15.3a12.95,12.95,0,1,1,25.89,0C28.24,19.94,26.84,21.79,19.08,32Z"/><path class="cls-1" d="M15.3,7.06a8.24,8.24,0,1,0,8.23,8.24A8.25,8.25,0,0,0,15.3,7.06Zm0,14.12a5.89,5.89,0,1,1,5.88-5.88A5.89,5.89,0,0,1,15.3,21.18Z"/></g></g></svg>