<svg xmlns="http://www.w3.org/2000/svg" viewBox="0 0 72 72"><defs><style>.cls-1{fill:#303393;}</style></defs><g id="Слой_2" data-name="Слой 2"><g id="Слой_78" data-name="Слой 78"><path class="cls-1" d="M71.41,20.63,36.59.16a1.18,1.18,0,0,0-1.18,0L.59,20.63a1.21,1.21,0,0,0-.59,1V50.31a1.21,1.21,0,0,0,.59,1L35.41,71.84a1.17,1.17,0,0,0,1.18,0L71.41,51.37a1.21,1.21,0,0,0,.59-1V21.67A1.21,1.21,0,0,0,71.41,20.63ZM36,40.75,21,31.9,53.41,12.83l15,8.84ZM36,2.59l15,8.85L18.59,30.52l-15-8.85ZM2.36,23.75,34.82,42.84V68.71L2.37,49.62ZM69.64,49.63,37.18,68.72V42.84L69.64,23.75V49.63Z"/><path class="cls-1" d="M26.64,51.9l-7-16.4a1.19,1.19,0,0,0-.91-.71,1.15,1.15,0,0,0-1.07.4l-7,8.21a1.27,1.27,0,0,0-.28,1,1.21,1.21,0,0,0,.58.84l2.89,1.7v7.49a1.19,1.19,0,0,0,.59,1l7,4.1a1.19,1.19,0,0,0,1.19,0,1.22,1.22,0,0,0,.59-1V52.41l1.72,1a1.15,1.15,0,0,0,1.37-.15A1.21,1.21,0,0,0,26.64,51.9Zm-4-2.62a1.18,1.18,0,0,0-1.18,0,1.22,1.22,0,0,0-.59,1v6.1l-4.6-2.7V46.24a1.22,1.22,0,0,0-.59-1.05l-2.24-1.32,4.8-5.66,4.8,11.31Z"/><path class="cls-1" d="M45.66,53.27a1.16,1.16,0,0,0,1.38.15l1.71-1v6.11a1.18,1.18,0,0,0,1.18,1.2,1.24,1.24,0,0,0,.59-.16l7-4.1a1.19,1.19,0,0,0,.59-1V46.93L61,45.23a1.21,1.21,0,0,0,.58-.84,1.22,1.22,0,0,0-.27-1l-7-8.21a1.15,1.15,0,0,0-1.07-.4,1.17,1.17,0,0,0-.9.71l-7,16.4A1.21,1.21,0,0,0,45.66,53.27Zm8.09-15.06,4.8,5.66L56.3,45.19a1.24,1.24,0,0,0-.59,1.05v7.49l-4.6,2.7v-6.1a1.24,1.24,0,0,0-.59-1,1.19,1.19,0,0,0-1.19,0l-.39.24Z"/></g></g></svg>