<svg xmlns="http://www.w3.org/2000/svg" viewBox="0 0 24 24"><defs><style>.cls-1{fill:#303393;}</style></defs><g id="Слой_2" data-name="Слой 2"><g id="Слой_1_295" data-name="Слой 1 295"><path class="cls-1" d="M12.8,6.4a.8.8,0,0,0,0,1.6A3.21,3.21,0,0,1,16,11.2a.8.8,0,0,0,1.6,0A4.8,4.8,0,0,0,12.8,6.4Z"/><path class="cls-1" d="M12.8,3.2a.8.8,0,1,0,0,1.6,6.41,6.41,0,0,1,6.4,6.4.8.8,0,1,0,1.6,0A8,8,0,0,0,12.8,3.2Z"/><path class="cls-1" d="M12.8,0a.8.8,0,0,0,0,1.6,9.62,9.62,0,0,1,9.6,9.6.8.8,0,0,0,1.6,0A11.21,11.21,0,0,0,12.8,0Z"/><path class="cls-1" d="M21.6,17.6A15,15,0,0,1,15,16.1a.76.76,0,0,0-.61,0,.81.81,0,0,0-.46.41l-1.26,2.6a20.16,20.16,0,0,1-7.76-7.76l2.6-1.26a.81.81,0,0,0,.41-.46A.76.76,0,0,0,7.9,9,15,15,0,0,1,6.4,2.4a.8.8,0,0,0-.8-.8H.8a.8.8,0,0,0-.8.8A21.62,21.62,0,0,0,21.6,24a.8.8,0,0,0,.8-.8V18.4A.8.8,0,0,0,21.6,17.6Z"/></g></g></svg>