<svg xmlns="http://www.w3.org/2000/svg" viewBox="0 0 75 53.47"><defs><style>.cls-1{fill:#303393;}</style></defs><g id="Слой_2" data-name="Слой 2"><g id="Слой_75" data-name="Слой 75"><path class="cls-1" d="M71.39,0H3.61A3.63,3.63,0,0,0,0,3.62V49.84a3.64,3.64,0,0,0,3.61,3.63H71.39A3.64,3.64,0,0,0,75,49.84V3.62A3.63,3.63,0,0,0,71.39,0ZM2.71,3.62a.91.91,0,0,1,.9-.9H71.39a.91.91,0,0,1,.9.9V8.16H2.71ZM72.29,49.84a.92.92,0,0,1-.9.91H3.61a.92.92,0,0,1-.9-.91V21.75H72.29Zm0-30.81H2.71V10.87H72.29V19Z"/><path class="cls-1" d="M61,30.81a7.65,7.65,0,0,0-5.42,2.25,7.71,7.71,0,1,0,0,10.91A7.69,7.69,0,1,0,61,30.81ZM61,43.5A4.9,4.9,0,0,1,57.49,42a2.72,2.72,0,0,0-3.83,0,5,5,0,1,1,0-7.06,2.69,2.69,0,0,0,3.83,0A5,5,0,0,1,66,38.51,5,5,0,0,1,61,43.5Z"/><path class="cls-1" d="M29.82,33.53H8.13a1.36,1.36,0,0,0,0,2.72H29.82a1.36,1.36,0,0,0,0-2.72Z"/><path class="cls-1" d="M18.07,39.87H8.13a1.36,1.36,0,0,0,0,2.72h9.94a1.36,1.36,0,0,0,0-2.72Z"/></g></g></svg>