<svg xmlns="http://www.w3.org/2000/svg" viewBox="0 0 48 48"><defs><style>.cls-1{fill:#303393;}</style></defs><g id="Слой_2" data-name="Слой 2"><g id="Слой_542" data-name="Слой 542"><path class="cls-1" d="M44.42,28.42,48,11H12.76l-1.22-5.8L.92,0,0,1.83,9.7,6.51l4.9,23.4H42.91s2.79,1.75,1.71,4a3,3,0,0,1-2.56,1.53H13.89v2H42.07a5.1,5.1,0,0,0,4.5-2.64C48.37,31.41,44.42,28.42,44.42,28.42Zm-28.08-.56L13.18,13H45.55L42.48,27.86Z"/><path class="cls-1" d="M19.71,40.27a3.86,3.86,0,1,0,3.88,3.86,3.87,3.87,0,0,0-3.88-3.86Zm0,5.69a1.83,1.83,0,1,1,1.84-1.83A1.83,1.83,0,0,1,19.71,46Z"/><path class="cls-1" d="M40.55,40.27a3.87,3.87,0,1,0,0,7.73,3.79,3.79,0,0,0,3.87-3.86A3.87,3.87,0,0,0,40.55,40.27Zm1.84,3.87a1.85,1.85,0,1,1-1.84-1.83A1.77,1.77,0,0,1,42.39,44.14Z"/></g></g></svg>