<svg xmlns="http://www.w3.org/2000/svg" viewBox="0 0 40 40"><defs><style>.cls-1{fill:#fff;}</style></defs><g id="Слой_2" data-name="Слой 2"><g id="Слой_1_276" data-name="Слой 1 276"><path class="cls-1" d="M37,23.68,40,9.15H10.64l-1-4.83L.77,0,0,1.53l8.08,3.9,4.08,19.49h23.6s2.32,1.46,1.42,3.31a2.54,2.54,0,0,1-2.13,1.27H11.58v1.68H35.06A4.25,4.25,0,0,0,38.81,29C40.31,26.17,37,23.68,37,23.68Zm-23.4-.46L11,10.84H38L35.4,23.22Z"/><path class="cls-1" d="M16.42,33.56a3.22,3.22,0,1,0,3.24,3.22,3.23,3.23,0,0,0-3.24-3.22Zm0,4.74A1.53,1.53,0,1,1,18,36.78,1.53,1.53,0,0,1,16.42,38.3Z"/><path class="cls-1" d="M33.79,33.56a3.22,3.22,0,1,0,0,6.44A3.16,3.16,0,0,0,37,36.78,3.22,3.22,0,0,0,33.79,33.56Zm1.53,3.22a1.54,1.54,0,1,1-1.53-1.52A1.47,1.47,0,0,1,35.32,36.78Z"/></g></g></svg>