<svg xmlns="http://www.w3.org/2000/svg" viewBox="0 0 16.02 16.02"><defs><style>.cls-1{fill:#b2b2b2;}</style></defs><g id="Слой_2" data-name="Слой 2"><g id="Слой_639" data-name="Слой 639"><path class="cls-1" d="M14.14,14.76H1.88a.63.63,0,0,1-.63-.62V5.88H14.76v8.26a.62.62,0,0,1-.62.62ZM1.88,2.5h.75V3.75H3.88V2.5h8.26V3.75h1.25V2.5h.75a.63.63,0,0,1,.62.63v1.5H1.25V3.13a.63.63,0,0,1,.63-.63ZM14.14,1.25h-.75V0H12.14V1.25H3.88V0H2.63V1.25H1.88A1.88,1.88,0,0,0,0,3.13v11A1.88,1.88,0,0,0,1.88,16H14.14A1.89,1.89,0,0,0,16,14.14v-11a1.88,1.88,0,0,0-1.88-1.88Z"/><polygon class="cls-1" points="2.38 7.2 3.63 7.2 3.63 8.45 2.38 8.45 2.38 7.2 2.38 7.2"/><polygon class="cls-1" points="4.88 7.2 6.13 7.2 6.13 8.45 4.88 8.45 4.88 7.2 4.88 7.2"/><polygon class="cls-1" points="7.38 7.2 8.63 7.2 8.63 8.45 7.38 8.45 7.38 7.2 7.38 7.2"/><polygon class="cls-1" points="9.88 7.2 11.14 7.2 11.14 8.45 9.88 8.45 9.88 7.2 9.88 7.2"/><polygon class="cls-1" points="12.39 7.2 13.64 7.2 13.64 8.45 12.39 8.45 12.39 7.2 12.39 7.2"/><polygon class="cls-1" points="2.38 9.7 3.63 9.7 3.63 10.95 2.38 10.95 2.38 9.7 2.38 9.7"/><polygon class="cls-1" points="4.88 9.7 6.13 9.7 6.13 10.95 4.88 10.95 4.88 9.7 4.88 9.7"/><polygon class="cls-1" points="7.38 9.7 8.63 9.7 8.63 10.95 7.38 10.95 7.38 9.7 7.38 9.7"/><polygon class="cls-1" points="9.88 9.7 11.14 9.7 11.14 10.95 9.88 10.95 9.88 9.7 9.88 9.7"/><polygon class="cls-1" points="2.38 12.2 3.63 12.2 3.63 13.45 2.38 13.45 2.38 12.2 2.38 12.2"/><polygon class="cls-1" points="4.88 12.2 6.13 12.2 6.13 13.45 4.88 13.45 4.88 12.2 4.88 12.2"/><polygon class="cls-1" points="7.38 12.2 8.63 12.2 8.63 13.45 7.38 13.45 7.38 12.2 7.38 12.2"/><polygon class="cls-1" points="9.88 12.2 11.14 12.2 11.14 13.45 9.88 13.45 9.88 12.2 9.88 12.2"/><polygon class="cls-1" points="12.39 9.7 13.64 9.7 13.64 10.95 12.39 10.95 12.39 9.7 12.39 9.7"/></g></g></svg>