<svg xmlns="http://www.w3.org/2000/svg" viewBox="0 0 55.85 40.03"><defs><style>.cls-1{fill:#303393;}</style></defs><g id="Слой_2" data-name="Слой 2"><g id="Слой_559" data-name="Слой 559"><path class="cls-1" d="M13,28.86a5.59,5.59,0,1,0,5.59,5.58A5.58,5.58,0,0,0,13,28.86Zm0,9.31a3.73,3.73,0,1,1,3.73-3.73A3.73,3.73,0,0,1,13,38.17Z"/><path class="cls-1" d="M44.68,28.86a5.59,5.59,0,1,0,5.59,5.58A5.58,5.58,0,0,0,44.68,28.86Zm0,9.31a3.73,3.73,0,1,1,3.73-3.73A3.73,3.73,0,0,1,44.68,38.17Z"/><path class="cls-1" d="M55.71,23.7l-8.38-13a.93.93,0,0,0-.79-.43H36.3a.93.93,0,0,0-.93.93V34.44a.93.93,0,0,0,.93.93H40V33.51H37.24V12.1H46l8,12.38v9H49.34v1.86h5.58a.92.92,0,0,0,.93-.93V24.2A1,1,0,0,0,55.71,23.7Z"/><path class="cls-1" d="M41,22.34V15.83h7.45V14H40a.93.93,0,0,0-.93.93v8.38a.92.92,0,0,0,.93.93H54V22.34Z"/><path class="cls-1" d="M36.3,3.72H.93A.93.93,0,0,0,0,4.65V34.44a.93.93,0,0,0,.93.93H8.38V33.51H1.86V5.59H35.37V33.51H17.69v1.86H36.3a.93.93,0,0,0,.94-.93V4.65A.94.94,0,0,0,36.3,3.72Z"/><rect class="cls-1" x="0.93" y="29.79" width="5.59" height="1.86"/><rect class="cls-1" x="19.55" y="29.79" width="15.83" height="1.86"/><rect class="cls-1" x="51.2" y="29.79" width="3.72" height="1.86"/><rect class="cls-1" x="3.72" y="7.45" width="32.58" height="1.86"/><rect class="cls-1" x="12.1" y="33.51" width="1.86" height="1.86"/><rect class="cls-1" x="43.75" y="33.51" width="1.86" height="1.86"/><rect class="cls-1" x="3.72" width="13.03" height="1.86"/><rect class="cls-1" width="1.86" height="1.86"/></g></g></svg>