<svg xmlns="http://www.w3.org/2000/svg" viewBox="0 0 18.39 18.38"><defs><style>.cls-1{fill:#fff;}</style></defs><g id="Слой_2" data-name="Слой 2"><g id="Слой_937" data-name="Слой 937"><path class="cls-1" d="M18.32,13a5.47,5.47,0,0,1-1.48,3.85A5.46,5.46,0,0,1,13,18.32c-1.51.08-6.06.08-7.58,0a5.49,5.49,0,0,1-3.85-1.49A5.43,5.43,0,0,1,.06,13C0,11.46,0,6.91.06,5.4A5.5,5.5,0,0,1,1.55,1.54,5.48,5.48,0,0,1,5.4.06C6.92,0,11.47,0,13,.06a5.5,5.5,0,0,1,3.86,1.49A5.47,5.47,0,0,1,18.32,5.4C18.41,6.92,18.41,11.46,18.32,13ZM16.73,9.19c0-1.34.11-4.21-.37-5.42A3.08,3.08,0,0,0,14.61,2c-1.2-.47-4.08-.36-5.42-.36S5,1.54,3.78,2A3.13,3.13,0,0,0,2,3.77C1.55,5,1.66,7.85,1.66,9.19S1.55,13.4,2,14.61a3.08,3.08,0,0,0,1.75,1.75c1.2.47,4.08.36,5.41.36s4.21.12,5.42-.36a3.13,3.13,0,0,0,1.75-1.75C16.84,13.4,16.73,10.53,16.73,9.19Zm-2.82,0A4.72,4.72,0,1,1,9.19,4.48,4.71,4.71,0,0,1,13.91,9.19Zm-1.65,0a3.07,3.07,0,1,0-3.07,3.06A3.07,3.07,0,0,0,12.26,9.19ZM14.1,5.38a1.1,1.1,0,1,1,1.1-1.09A1.09,1.09,0,0,1,14.1,5.38Z"/></g></g></svg>