<svg xmlns="http://www.w3.org/2000/svg" viewBox="0 0 80 80"><defs><style>.cls-1{fill:#b3b3b3;}</style></defs><g id="Слой_2" data-name="Слой 2"><g id="Слой_979" data-name="Слой 979"><path class="cls-1" d="M13.33,0V16.67H0v30H13.33V80H60L80,60V0Zm-10,43.33V20h50V43.33ZM60,75.29V60H75.29ZM76.67,56.67h-20v20h-40v-30h40v-30h-40V3.33h60Z"/><path class="cls-1" d="M18.93,27.26a4.05,4.05,0,0,0-.66-1.37,3.44,3.44,0,0,0-1.21-1,4.29,4.29,0,0,0-1.85-.37h-5V38.83h2.88v-5.7h1.54a6.38,6.38,0,0,0,1.86-.26,3.81,3.81,0,0,0,1.43-.78,3.44,3.44,0,0,0,.92-1.34,5.07,5.07,0,0,0,.33-1.92A6.37,6.37,0,0,0,18.93,27.26ZM15.72,30.5a1.93,1.93,0,0,1-1.39.52H13.05V26.68h1.2a1.9,1.9,0,0,1,1.54.56,2.56,2.56,0,0,1,.46,1.64A2.21,2.21,0,0,1,15.72,30.5Z"/><path class="cls-1" d="M32,28.63a6.27,6.27,0,0,0-.69-2.19A3.51,3.51,0,0,0,29.83,25a5.25,5.25,0,0,0-2.42-.49H22.69V38.83h4.54a5.65,5.65,0,0,0,2.38-.44,3.41,3.41,0,0,0,1.5-1.34,6.11,6.11,0,0,0,.79-2.29,19.61,19.61,0,0,0,.23-3.27A20.76,20.76,0,0,0,32,28.63ZM29.16,34a5.06,5.06,0,0,1-.36,1.59,1.85,1.85,0,0,1-.73.86,2.54,2.54,0,0,1-1.22.26H25.57v-10h1.21a2.37,2.37,0,0,1,1.31.32,1.89,1.89,0,0,1,.75.91,5.82,5.82,0,0,1,.33,1.53c0,.62.08,1.33.08,2.15Q29.25,33,29.16,34Z"/><polygon class="cls-1" points="44.01 26.91 44.01 24.55 36.03 24.55 36.03 38.83 38.91 38.83 38.91 32.63 43.71 32.63 43.71 30.27 38.91 30.27 38.91 26.91 44.01 26.91"/></g></g></svg>