<svg xmlns="http://www.w3.org/2000/svg" viewBox="0 0 14.67 14.64"><defs><style>.cls-1{fill:#b2b2b2;}.cls-2{fill:none;}</style></defs><g id="Слой_2" data-name="Слой 2"><g id="Слой_638" data-name="Слой 638"><path class="cls-1" d="M13.54,9.18a.36.36,0,0,0-.36.37v3.24a1.1,1.1,0,0,1-1.1,1.1H1.83a1.1,1.1,0,0,1-1.1-1.1V3.27a1.1,1.1,0,0,1,1.1-1.1H5.07a.37.37,0,1,0,0-.73H1.83A1.83,1.83,0,0,0,0,3.27v9.52a1.83,1.83,0,0,0,1.83,1.83H12.08a1.83,1.83,0,0,0,1.83-1.83V9.55a.37.37,0,0,0-.37-.37Z"/><path class="cls-1" d="M14.19.93,13.76.5a1.64,1.64,0,0,0-2.32,0L4.92,7a.34.34,0,0,0-.1.16L4,10.28a.35.35,0,0,0,.09.35.39.39,0,0,0,.36.1l3.09-.86a.34.34,0,0,0,.16-.1l6.52-6.52A1.64,1.64,0,0,0,14.19.93ZM4.84,9.85,5.37,8,6.75,9.32ZM7.43,9,5.71,7.26l5.34-5.34,1.72,1.72Zm6.25-6.24-.39.39L11.57,1.4,12,1a.92.92,0,0,1,1.3,0l.43.43A.92.92,0,0,1,13.68,2.74Z"/><rect class="cls-2" width="14.67" height="14.64"/></g></g></svg>