<svg xmlns="http://www.w3.org/2000/svg" viewBox="0 0 21 17.06"><defs><style>.cls-1{fill:#fff;}</style></defs><g id="Слой_2" data-name="Слой 2"><g id="Слой_940" data-name="Слой 940"><path class="cls-1" d="M18.85,4.81A12.16,12.16,0,0,1,6.61,17.06,12.14,12.14,0,0,1,0,15.12a8.94,8.94,0,0,0,1,.06,8.61,8.61,0,0,0,5.34-1.84,4.31,4.31,0,0,1-4-3,5.42,5.42,0,0,0,.81.07,4.22,4.22,0,0,0,1.13-.15A4.3,4.3,0,0,1,.85,6.05V6a4.27,4.27,0,0,0,1.95.54A4.29,4.29,0,0,1,.88,3,4.2,4.2,0,0,1,1.47.79a12.22,12.22,0,0,0,8.87,4.5,4.62,4.62,0,0,1-.11-1,4.31,4.31,0,0,1,7.45-2.94,8.5,8.5,0,0,0,2.73-1,4.29,4.29,0,0,1-1.89,2.37A8.57,8.57,0,0,0,21,2a9.29,9.29,0,0,1-2.16,2.22C18.85,4.44,18.85,4.62,18.85,4.81Z"/></g></g></svg>