<svg xmlns="http://www.w3.org/2000/svg" viewBox="0 0 22.09 13.13"><defs><style>.cls-1{fill:#fff;}</style></defs><g id="Слой_2" data-name="Слой 2"><g id="Слой_939" data-name="Слой 939"><path class="cls-1" d="M18.33,6.45c-.25.41-.35.62,0,1.08.14.19,3.25,3.14,3.71,4.57.2.68-.15,1-.84,1H18.79c-.92,0-1.19-.74-2.83-2.38-1.44-1.38-2.06-1.56-2.41-1.56-.77,0-.63.26-.63,3,0,.59-.19.94-1.73.94-2.56,0-5.37-1.56-7.37-4.43C.82,4.5,0,1.33,0,.68,0,.32.14,0,.83,0H3.24c.62,0,.86.27,1.1.94,1.18,3.44,3.17,6.46,4,6.46.31,0,.45-.15.45-.93V2.91c-.09-1.64-1-1.77-1-2.36A.58.58,0,0,1,8.43,0h3.8c.51,0,.68.27.68.89V5.68c0,.51.24.69.39.69s.56-.18,1.13-.74a20.68,20.68,0,0,0,3-4.95,1,1,0,0,1,1-.68h2.42c.73,0,.88.38.73.89C21.29,2.3,18.34,6.45,18.33,6.45Z"/></g></g></svg>