<svg xmlns="http://www.w3.org/2000/svg" viewBox="0 0 22.4 15.75"><defs><style>.cls-1{fill:#fff;}</style></defs><g id="Слой_2" data-name="Слой 2"><g id="Слой_938" data-name="Слой 938"><path class="cls-1" d="M22.4,7.89a29.45,29.45,0,0,1-.47,5.43,2.77,2.77,0,0,1-2,2c-1.74.47-8.75.47-8.75.47s-7,0-8.75-.47a2.77,2.77,0,0,1-2-2A29.45,29.45,0,0,1,0,7.89,29.45,29.45,0,0,1,.47,2.46a2.8,2.8,0,0,1,2-2C4.2,0,11.2,0,11.2,0s7,0,8.75.47a2.8,2.8,0,0,1,2,2A29.45,29.45,0,0,1,22.4,7.89Zm-7.64,0L8.91,4.56v6.66Z"/></g></g></svg>