<svg xmlns="http://www.w3.org/2000/svg" viewBox="0 0 23.11 15.89"><defs><style>.cls-1{fill:#f44336;}.cls-2{fill:#fafafa;}</style></defs><g id="Слой_2" data-name="Слой 2"><g id="Слой_422" data-name="Слой 422"><path class="cls-1" d="M22.13,1.53C21.5.42,20.82.21,19.44.13S14.57,0,11.56,0,5.06,0,3.67.13,1.61.41,1,1.53s-1,3-1,6.41H0c0,3.36.33,5.3,1,6.4s1.31,1.32,2.69,1.41,4.87.13,7.89.13,6.49-.05,7.88-.13,2.06-.29,2.69-1.41,1-3,1-6.4h0C23.11,4.56,22.78,2.64,22.13,1.53Z"/><polygon class="cls-2" points="8.67 12.28 8.67 3.61 15.89 7.94 8.67 12.28"/></g></g></svg>