<svg width="26" height="36" viewBox="0 0 26 36" fill="none" xmlns="http://www.w3.org/2000/svg">
<path d="M20.2288 4.47364L20.3671 3.99315L20.2288 4.47364ZM9.72883 13.4736L10.184 13.6805L9.72883 13.4736ZM4.31892 31.7604C4.47727 31.9866 4.78903 32.0416 5.01526 31.8833L8.702 29.303C8.92824 29.1446 8.98328 28.8329 8.82494 28.6066C8.6666 28.3804 8.35483 28.3254 8.1286 28.4837L4.8515 30.7773L2.55789 27.5002C2.39955 27.274 2.08779 27.2189 1.86156 27.3773C1.63532 27.5356 1.58028 27.8474 1.73862 28.0736L4.31892 31.7604ZM24.229 7.47364C24.6402 7.18914 24.6401 7.18901 24.64 7.18888C24.64 7.18883 24.6399 7.18869 24.6398 7.18858C24.6397 7.18835 24.6395 7.1881 24.6393 7.18781C24.6389 7.18722 24.6384 7.1865 24.6378 7.18563C24.6366 7.18391 24.635 7.18163 24.633 7.17881C24.629 7.17317 24.6235 7.16537 24.6164 7.15554C24.6022 7.13588 24.5819 7.10805 24.5557 7.07304C24.5031 7.00304 24.4267 6.90414 24.3277 6.78414C24.1302 6.54448 23.8416 6.21873 23.4741 5.87024C22.7449 5.17872 21.6763 4.37001 20.3671 3.99315L20.0905 4.95413C21.1844 5.269 22.1158 5.96029 22.786 6.59584C23.1182 6.91088 23.3791 7.20544 23.5561 7.42019C23.6445 7.5274 23.7115 7.61423 23.7558 7.67317C23.7779 7.70263 23.7942 7.72507 23.8046 7.73956C23.8099 7.7468 23.8136 7.75205 23.8158 7.75519C23.8169 7.75676 23.8176 7.7578 23.818 7.7583C23.8181 7.75855 23.8182 7.75866 23.8182 7.75864C23.8182 7.75862 23.8182 7.75858 23.8181 7.7585C23.8181 7.75845 23.818 7.75837 23.818 7.75835C23.8179 7.75825 23.8179 7.75815 24.229 7.47364ZM20.3671 3.99315C18.953 3.58606 17.6853 3.60902 16.5413 3.98626C15.4029 4.36169 14.423 5.07599 13.5592 5.99507C11.8458 7.8181 10.5192 10.5265 9.27365 13.2667L10.184 13.6805C11.4385 10.9208 12.7048 8.36432 14.2879 6.67992C15.0724 5.84529 15.9167 5.24523 16.8545 4.93595C17.7869 4.62848 18.8477 4.59636 20.0905 4.95413L20.3671 3.99315ZM9.27365 13.2667C7.76266 16.5909 6.50369 21.1305 5.62492 24.816C5.18442 26.6634 4.83747 28.3048 4.60061 29.4846C4.48216 30.0746 4.39118 30.5493 4.32976 30.877C4.29905 31.0408 4.27572 31.1678 4.26004 31.2541C4.2522 31.2973 4.24627 31.3302 4.24228 31.3525C4.24029 31.3636 4.23878 31.3721 4.23776 31.3778C4.23725 31.3807 4.23686 31.3828 4.2366 31.3843C4.23647 31.3851 4.23637 31.3857 4.2363 31.3861C4.23626 31.3863 4.23623 31.3864 4.23621 31.3865C4.23619 31.3866 4.23618 31.3867 4.72856 31.4737C5.22095 31.5606 5.22095 31.5606 5.22096 31.5605C5.22097 31.5605 5.22099 31.5604 5.22101 31.5602C5.22107 31.5599 5.22115 31.5594 5.22126 31.5588C5.22149 31.5575 5.22184 31.5555 5.22232 31.5529C5.22326 31.5475 5.2247 31.5395 5.22662 31.5288C5.23046 31.5073 5.23624 31.4752 5.24392 31.4329C5.25929 31.3484 5.28228 31.2231 5.31264 31.0612C5.37335 30.7374 5.46351 30.2668 5.58104 29.6814C5.81614 28.5105 6.16055 26.8811 6.59765 25.0479C7.47407 21.3723 8.71524 16.9119 10.184 13.6805L9.27365 13.2667Z" fill="#FEA5B3"/>
</svg>
