<svg width="39" height="48" viewBox="0 0 39 48" fill="none" xmlns="http://www.w3.org/2000/svg">
<path d="M29.8807 23.6052C30.8254 22.844 31.8231 21.409 31.1552 18.9125C30.9436 18.1214 30.3976 17.4439 29.6572 17.0534C28.0276 16.1943 26.5253 16.1892 25.7604 16.2661C25.5419 14.9304 24.5069 13.8484 23.1398 13.6008C21.3542 13.2781 20.2409 14.4875 19.6774 15.6323C19.1154 14.8381 18.0084 13.8638 15.9604 13.8638C15.073 13.8638 14.3603 14.167 13.8426 14.7648C13.3778 15.3012 13.1456 16.0021 13.0359 16.6645C9.62928 16.7306 7.07605 18.8226 6.96745 18.913C6.86275 19.0002 6.80225 19.1294 6.80225 19.2657C6.80225 22.7697 8.55828 24.7237 9.40231 25.4598C8.33602 26.785 7.35686 28.4389 7.3277 30.0682C7.30589 31.2855 7.807 32.3415 8.81716 33.2069C10.1924 34.385 11.9779 34.9851 14.0631 34.9851C14.8279 34.9851 15.6336 34.9042 16.4733 34.7415C18.461 34.3564 20.0316 33.6392 20.4886 33.4169C20.8191 33.6303 21.1447 33.7936 21.4217 33.903C21.4446 33.9121 21.4681 33.9192 21.492 33.9245C22.4753 34.1403 23.4187 34.2302 24.3097 34.2302C28.6398 34.2298 31.7105 32.1063 31.8645 31.9977C31.9864 31.9116 32.0588 31.7719 32.0588 31.6227V28.1218C32.0588 26.3745 31.2484 24.7025 29.8807 23.6052ZM29.2286 17.8654C29.7434 18.1368 30.1222 18.6048 30.2679 19.1496C30.5995 20.3888 30.6351 22.072 28.9709 23.1288C28.8542 23.0834 28.6027 22.9771 28.2817 22.7943C28.8642 22.4503 29.4362 21.8009 29.6599 20.6601C29.7087 20.4114 29.5465 20.1702 29.2976 20.1214C29.0492 20.0731 28.8073 20.2349 28.7586 20.4836C28.6155 21.2132 28.2987 21.7243 27.817 22.0025C27.6581 22.0943 27.5047 22.146 27.3821 22.1752C26.9794 21.8448 26.5611 21.4189 26.1992 20.8799C26.2221 20.7805 26.2425 20.6796 26.2596 20.5771C26.5189 19.022 26.4948 17.8768 26.1892 17.1603C26.8944 17.1368 28.0263 17.2316 29.2286 17.8654ZM19.9257 29.2573C20.5308 28.5409 20.7716 27.4576 20.6413 26.0303C21.6879 25.6542 24.6501 24.3993 25.8319 21.9216C26.0994 22.2463 26.3804 22.5263 26.6585 22.7666C26.9989 24.8835 25.3649 27.0405 23.6973 28.1517C22.5806 28.8958 20.9415 29.162 19.9257 29.2573ZM12.997 26.1126C12.57 25.3031 12.5444 24.3627 12.9191 23.3092C13.2785 23.7817 13.8308 24.4115 14.5677 24.9768C15.7572 25.8896 17.059 26.3506 18.413 26.3506C18.8484 26.3506 19.2895 26.3011 19.7338 26.2054C19.823 27.3353 19.6431 28.1892 19.2056 28.6889C18.9018 29.0358 18.5418 29.1375 18.3534 29.1674C16.9294 28.8601 13.9999 28.0137 12.997 26.1126ZM13.7808 18.9744C13.7946 18.9608 13.8048 18.9446 13.8166 18.9296C14.0183 18.7599 14.7896 18.1982 16.0193 18.3216C15.7435 18.7545 15.5556 19.2514 15.4629 19.8082C15.2814 20.8965 15.6593 21.5324 16.0805 21.8957C16.1336 22.6278 16.5558 23.2472 17.2829 23.6518C17.8448 23.9644 18.5367 24.1221 19.2008 24.1221C19.8161 24.1221 20.4077 23.9866 20.8486 23.7134C22.7321 22.5467 23.8028 21.3381 24.0309 20.1212C24.1797 19.328 23.9789 18.5593 23.4341 17.8362C23.2906 17.6458 23.128 17.4716 22.9506 17.3138C24.1886 16.8472 24.9506 17.1896 24.9831 17.2048C25.0331 17.2299 25.0871 17.2455 25.1426 17.251C25.1969 17.281 25.8087 17.6973 25.3538 20.4259C24.9191 23.0321 22.0035 24.4938 20.6729 25.0319C20.5903 25.0145 20.5023 25.0186 20.4174 25.0505C18.5341 25.7563 16.7621 25.4925 15.1502 24.2663C14.0592 23.4365 13.4018 22.42 13.2559 22.1813C13.2447 22.1534 13.2315 22.1262 13.2147 22.1006C13.1729 22.0371 12.2097 20.5261 13.7808 18.9744ZM19.9488 17.249C21.0393 17.1467 22.0941 17.5837 22.7003 18.3884C23.0834 18.8969 23.2274 19.423 23.1282 19.9521C22.9494 20.9048 22.0198 21.9078 20.3648 22.933C19.7382 23.3211 18.5067 23.2821 17.7296 22.8496C17.5081 22.7263 17.3361 22.582 17.2143 22.4177C18.6022 22.6942 20.3691 22.1122 21.0952 21.2684C21.5398 20.7518 21.5937 20.1542 21.2433 19.6288C20.8329 19.0134 20.3139 18.6706 19.7011 18.61C18.5247 18.4934 17.4892 19.5153 17.4457 19.5589C17.2663 19.7382 17.2663 20.0288 17.4457 20.208C17.625 20.3873 17.9159 20.3873 18.095 20.208C18.1026 20.2005 18.8744 19.4504 19.6105 19.5235C19.9409 19.5562 20.225 19.7572 20.479 20.1381C20.5645 20.2663 20.6141 20.4196 20.3987 20.6699C19.8041 21.3611 17.9605 21.8473 16.9599 21.3792C16.443 21.1375 16.2495 20.6729 16.3687 19.9589C16.4819 19.2803 16.7649 18.7657 17.1458 18.3764C17.1666 18.3596 17.1854 18.3405 17.2032 18.3202C17.9411 17.6076 19.0167 17.336 19.9488 17.249ZM22.9761 14.5042C23.8842 14.6686 24.5868 15.3477 24.8095 16.209C24.2309 16.1047 23.257 16.0951 22.0401 16.7147C21.5315 16.4737 20.9652 16.3352 20.3798 16.3186C20.6971 15.5365 21.4627 14.23 22.9761 14.5042ZM14.5381 15.3643C14.8784 14.9724 15.3436 14.7819 15.9604 14.7819C17.9163 14.7819 18.7774 15.8241 19.1155 16.4404C18.1355 16.6269 17.3306 16.9895 16.7235 17.5113C15.4558 17.2118 14.481 17.4985 13.8665 17.8114C13.8634 17.0872 13.9688 16.02 14.5381 15.3643ZM7.7232 19.4892C8.31076 19.0545 10.3772 17.6694 12.9504 17.5836C12.9401 17.9624 12.9595 18.2819 12.9779 18.484C12.0222 19.5174 11.9066 20.5494 11.9853 21.2477C12.0409 21.7436 12.1973 22.1346 12.3144 22.3698C12.2637 22.478 12.2171 22.5854 12.1729 22.6922C12.1554 22.7026 12.1377 22.7122 12.1214 22.7253C12.0337 22.7952 11.0504 23.5865 9.99699 24.7607C9.27798 24.1333 7.79415 22.4801 7.7232 19.4892ZM9.41482 32.51C8.61166 31.8219 8.22925 31.029 8.2459 30.0859C8.28447 27.8938 10.4638 25.5041 11.757 24.2759C11.6795 25.0467 11.8056 25.7685 12.1336 26.436C12.1002 26.4503 12.0677 26.4672 12.0374 26.49C11.9416 26.5617 9.69391 28.2736 9.8637 30.676C9.88081 30.9178 10.0824 31.1026 10.3213 31.1026C10.3322 31.1026 10.3431 31.1022 10.3541 31.1014C10.6071 31.0835 10.7976 30.8641 10.7798 30.6112C10.6455 28.7125 12.5692 27.2388 12.5886 27.2241C12.5985 27.2166 12.6064 27.2074 12.6155 27.1992C13.9648 28.9074 16.5343 29.7021 17.9797 30.0285C18.0472 30.0702 18.1255 30.0965 18.2106 30.0982C18.2123 30.0982 18.2156 30.0983 18.2205 30.0983C18.2337 30.0983 18.2587 30.0979 18.293 30.0959C18.3896 30.1157 18.4788 30.1329 18.5589 30.1477C18.4623 31.2361 18.9923 32.124 19.6756 32.7782C18.0182 33.4988 12.793 35.4044 9.41482 32.51ZM31.1404 31.374C30.2528 31.9255 26.4299 34.0516 21.729 33.0369C21.583 32.9744 20.9514 32.6873 20.3912 32.1902C19.7137 31.5891 19.4073 30.9253 19.4759 30.2132C19.9553 30.1874 20.7472 30.1173 21.6093 29.9301C21.7636 30.1768 22.1907 30.7559 23.0109 31.1665C23.6569 31.4898 24.3538 31.6153 25.0468 31.6153C26.1482 31.6153 27.2392 31.2982 28.0964 30.9555C28.332 30.8614 28.4464 30.5943 28.3523 30.3589C28.2581 30.1234 27.9908 30.0093 27.7554 30.1032C24.4912 31.4081 23.0417 30.2568 22.5576 29.6787C23.1376 29.4936 23.7102 29.2465 24.2068 28.9157C25.2225 28.2389 26.1212 27.3037 26.737 26.2827C27.2966 25.3549 27.5952 24.3974 27.6205 23.4701C28.2429 23.852 28.7129 24.0132 28.7523 24.0263C28.8004 24.0424 28.8494 24.0499 28.8976 24.0499C28.9123 24.0499 28.9268 24.0479 28.9414 24.0465L29.1574 24.2067C30.3991 25.1263 31.1404 26.59 31.1404 28.122V31.374Z" fill="white"/>
<path d="M5.01952 38.1643C5.01952 38.1643 4.80668 39.0246 5.01952 39.5014C5.38639 40.3233 7.59195 40.5517 7.59195 40.5517L9.03086 40.8386L10.7816 41.1357C10.7816 41.1357 15.8315 41.5582 19.0747 41.5814C22.8149 41.6081 28.6418 41.1357 28.6418 41.1357L30.1322 40.9871C30.1322 40.9871 30.9215 40.8864 31.408 40.7644C31.9162 40.6369 32.6532 40.3391 32.6532 40.3391C32.6532 40.3391 33.5971 39.8281 33.8417 39.5014C34.1547 39.0834 33.8417 38.1643 33.8417 38.1643V38.0158M5.01952 38.1643V15.1363C5.01952 15.1363 5.08764 14.2281 5.16809 13.6506C5.29054 12.7716 5.35341 12.2706 5.61379 11.4221C5.91107 10.4534 6.2227 9.962 6.65377 9.045C7.04012 8.22313 7.17464 7.71021 7.69375 6.96505C8.13992 6.32456 8.43641 6.07364 9.03077 5.3308C9.62513 4.58796 9.87519 4.50547 10.5165 3.99369C11.0071 3.60225 11.3175 3.42846 11.8536 3.10228C12.364 2.79181 12.6548 2.62327 13.1908 2.35944C13.8675 2.0263 14.2571 1.85244 14.9736 1.6166C15.6553 1.39219 16.0485 1.28862 16.7564 1.17089C17.3316 1.07524 17.6598 1.05394 18.2421 1.02232C18.9373 0.984576 19.329 1.00176 20.0249 1.02232C20.8967 1.04809 21.3944 1.01978 22.2534 1.17089C23.0854 1.31725 23.5416 1.47074 24.3334 1.76517C25.112 2.05469 25.5417 2.24765 26.2647 2.65657C27.0633 3.10815 27.4795 3.42093 28.1961 3.99369C28.7419 4.42988 29.0254 4.70247 29.5332 5.18223C30.0104 5.63299 30.3169 5.85414 30.7218 6.37077C31.1392 6.90331 31.286 7.26421 31.6132 7.85645C31.9896 8.53781 32.1565 8.94304 32.5046 9.63927C32.7367 10.1034 32.8977 10.3495 33.0989 10.8278C33.4049 11.5552 33.5399 11.9851 33.6931 12.7592C33.7728 13.1616 33.8417 13.7992 33.8417 13.7992V38.0158M5.01952 38.1643C5.01952 38.1643 4.65733 38.2549 4.42525 38.3129C4.19317 38.3709 4.05571 38.3795 3.83098 38.4615C3.58723 38.5504 3.44655 38.606 3.23671 38.7586C3.03763 38.9034 2.92473 38.9976 2.791 39.2043C2.72052 39.3132 2.67657 39.3763 2.64243 39.5014C2.60192 39.65 2.4938 39.7731 2.4938 39.9471C2.4938 40.2932 2.45243 40.5577 2.52384 40.8386M33.8417 38.0158C33.8417 38.0158 34.3889 38.1859 34.7331 38.3129C35.0263 38.4211 35.1956 38.4721 35.476 38.61C35.7795 38.7594 35.9938 38.8031 36.2188 39.0557C36.682 39.576 36.6283 40.2356 36.3046 40.8386M2.52384 40.8386C2.5482 40.9344 2.58569 41.0321 2.64243 41.1357C2.82096 41.4615 3.07156 41.531 3.38527 41.73C3.91295 42.0647 4.2703 42.1519 4.87095 42.3242C5.54942 42.5189 5.95845 42.5 6.65377 42.6214C7.29279 42.7329 7.65125 42.7948 8.28802 42.9185C8.57843 42.9749 8.73909 43.0181 9.03086 43.0671C9.54901 43.154 9.84533 43.1619 10.368 43.2156C16.8321 43.8799 20.5315 43.7513 27.0076 43.2156C27.6462 43.1628 28.0049 43.1375 28.6418 43.0671C29.1068 43.0157 29.3659 42.9735 29.8304 42.9185C30.3521 42.8567 30.6481 42.8492 31.1675 42.7699C31.7524 42.6807 32.0756 42.6013 32.6532 42.4728C33.3537 42.317 33.753 42.2476 34.436 42.0271C34.9077 41.8748 35.22 41.8678 35.6245 41.5814C35.8924 41.3917 36.0461 41.2662 36.2188 40.9871C36.2492 40.9381 36.2778 40.8885 36.3046 40.8386M2.52384 40.8386C2.52384 40.8386 2.22536 41.1942 2.04808 41.4328C1.79858 41.7687 1.63432 41.9468 1.4538 42.3242C1.29548 42.6553 1.24848 42.8604 1.15667 43.2156C1.08265 43.5021 1.03696 43.6641 1.0081 43.9585C0.979794 44.2472 1.02483 44.4429 1.15667 44.7013C1.31042 45.0027 1.45481 44.9834 1.75094 45.147C2.09164 45.3352 2.28663 45.4349 2.64243 45.5927C3.09557 45.7937 3.35529 45.899 3.83098 46.0384C4.39873 46.2049 4.73641 46.2195 5.31657 46.3356C5.89676 46.4516 6.21688 46.5465 6.80225 46.6327C7.43626 46.726 7.80181 46.6927 8.4365 46.7813C8.78603 46.8301 8.86375 46.8718 9.32791 46.9298C9.79206 46.9879 10.0523 47.0204 10.5165 47.0784C10.5165 47.0784 19.8568 47.4854 25.819 47.0784C26.5737 47.0269 26.997 46.9986 27.7503 46.9298C28.7968 46.8344 29.3817 46.7612 30.4246 46.6327C31.296 46.5253 31.7882 46.4866 32.6532 46.3356C33.4715 46.1927 33.9295 46.1002 34.7331 45.8899C35.4965 45.6901 35.9546 45.6404 36.6644 45.2956C37.1568 45.0564 37.5939 45.0349 37.853 44.5528C38.1001 44.0928 37.9904 43.7194 37.853 43.2156C37.7506 42.8402 37.6023 42.6611 37.4073 42.3242C37.0453 41.6989 36.3046 40.8386 36.3046 40.8386" stroke="white"/>
</svg>
