<?xml version="1.0" encoding="utf-8"?>
<!-- Generator: Adobe Illustrator 24.1.2, SVG Export Plug-In . SVG Version: 6.00 Build 0)  -->
<svg version="1.1" id="Слой_1" xmlns="http://www.w3.org/2000/svg" xmlns:xlink="http://www.w3.org/1999/xlink" x="0px" y="0px"
	 viewBox="0 0 21 25" style="enable-background:new 0 0 21 25;" xml:space="preserve">
<style type="text/css">
	.st0{fill:none;stroke:#000000;stroke-linecap:round;stroke-linejoin:round;stroke-miterlimit:10;}
</style>
<path class="st0" d="M7.3,8.5C8.5,8.1,6.5,1.3,6,1C5.4,0.7,4,1,3,1.7C0.3,3.5,0.7,8.1,0.8,9.4c0.5,6.1,5.3,11,9.8,13.1
	c1.7,0.8,4.3,2,6.9,0.8c1.6-0.7,3-2.4,2.9-2.9c-0.1-0.5-3.9-3.8-4.7-4c-0.8-0.2-2.4,2.4-3.3,2.3c-0.9-0.1-2.4-1.6-3.9-3.2
	c-1.9-2.1-3.3-4.6-3-5.6"/>
</svg>
