<svg width="100" height="100" viewBox="0 0 100 100" fill="none" xmlns="http://www.w3.org/2000/svg">
<circle cx="49.5354" cy="49.5354" r="49.0354" stroke="#FEA5B3"/>
<path d="M59.355 41.5344C59.0215 38.0247 58.8547 34.5151 59.1883 30.8384C57.1868 33.5124 54.8518 35.8521 52.5168 38.1919C51.1825 35.1836 49.8482 32.1754 49.0143 29C48.1804 32.1754 46.8461 35.1836 45.5118 38.1919C43.1768 36.0192 40.8418 33.5124 38.8404 30.8384C39.1739 34.5151 39.0072 38.0247 38.6736 41.5344C35.5047 40.3645 32.0021 39.0275 29 37.3562C33.5032 45.3782 35.3379 54.9044 38.0064 61.088C39.5075 65.7675 43.8439 69.11 49.0143 69.11C54.1847 69.11 58.6879 65.7675 60.189 60.9209C62.6908 54.9044 64.5254 45.3782 69.0286 37.3562C66.0265 39.0275 62.524 40.3645 59.355 41.5344ZM57.3536 35.5179C57.3536 37.8576 57.3536 40.0302 57.5204 42.0357C58.0208 41.8686 56.1861 42.5371 55.0186 42.8714C54.5182 41.8686 54.0179 40.8659 53.3507 39.696C54.685 38.5261 56.0193 37.1891 57.3536 35.5179ZM40.5082 42.2029C40.675 40.1974 40.675 38.0247 40.675 35.5179C42.0093 37.022 43.3436 38.5261 44.6779 39.8631C44.1775 40.8659 43.6772 42.0357 43.01 43.0385C41.6757 42.5371 40.0079 42.0357 40.5082 42.2029ZM34.8375 43.2056C37.3393 44.2084 39.6743 45.044 41.6757 45.7125C40.3414 48.2194 39.1739 50.7262 38.34 52.8989C37.5061 50.392 36.3386 46.8824 34.8375 43.2056ZM49.0143 65.7675C44.3443 65.7675 40.675 62.0907 40.675 57.4112C40.675 52.7317 44.0107 49.055 49.0143 37.3562C54.0179 49.055 57.3536 52.7317 57.3536 57.4112C57.3536 62.0907 53.6843 65.7675 49.0143 65.7675ZM59.6886 52.8989C58.8547 50.7262 57.6872 48.3865 56.3529 45.7125C58.3543 45.044 60.6893 44.2084 63.1911 43.2056C61.69 46.8824 60.5225 50.2249 59.6886 52.8989Z" fill="#FEA5B3"/>
</svg>
