<svg width="100" height="100" viewBox="0 0 100 100" fill="none" xmlns="http://www.w3.org/2000/svg">
<circle cx="49.5354" cy="49.5354" r="49.0354" stroke="#FEA5B3"/>
<path d="M69.0089 43.2693C69.0351 43.1522 69.0351 43.0307 69.0089 42.9136C68.9939 42.7805 68.9476 42.6528 68.8737 42.5411L62.8235 33.6674C62.8321 33.5999 62.8321 33.5316 62.8235 33.4642C62.7446 33.3081 62.6193 33.1803 62.465 33.0984C62.3106 33.0165 62.1348 32.9846 61.9615 33.007H36.2564C36.1378 33.0161 36.0225 33.0507 35.9184 33.1086C35.8679 33.148 35.8225 33.1935 35.7832 33.244C35.7335 33.2779 35.6881 33.3177 35.648 33.3626L29.1752 42.4395C29.0874 42.5643 29.0348 42.7105 29.0231 42.8628C28.9923 42.9908 28.9923 43.1243 29.0231 43.2523C29.02 43.2918 29.02 43.3314 29.0231 43.3709L49.1005 65.9954H49.3033H49.3878H49.4892H49.7089H49.9624H50.0638L68.654 43.4894C68.6563 43.4556 68.6563 43.4216 68.654 43.3878C68.654 43.3878 69.0089 43.2862 69.0089 43.2693ZM49.0498 35.327L53.8157 42.1008H44.2333L47.1401 37.9688L49.0498 35.327ZM54.4579 43.7942L49.6413 62.4222L43.8108 43.7942H54.4579ZM47.6978 61.9141L31.7441 43.7773H42.0363L47.6978 61.9141ZM56.1479 43.7942H66.3894L51.5003 61.948L56.1479 43.7942ZM57.1281 42.1008L61.8433 35.327L66.5584 42.1008H57.1281ZM60.2208 34.7004L55.5057 41.4742L50.7905 34.7004H60.2208ZM44.5206 38.8324L42.6616 41.4742L38.6393 35.7503L37.8957 34.7004H47.4274L44.5206 38.8324ZM36.2564 35.327L40.2955 41.0339L41.0391 42.0838H31.4906L36.2564 35.327Z" fill="#FEA5B3"/>
</svg>
