<svg xmlns="http://www.w3.org/2000/svg" width="53.156" height="44.71" viewBox="0 0 53.156 44.71">
  <defs>
    <style>
      .cls-1 {
        fill: #baecee;
        fill-rule: evenodd;
      }
    </style>
  </defs>
  <path id="Shape" class="cls-1" d="M508.29,1425.12l-20.778,3.58,5.081,6.13c-1.993,1.49-3.275,3.81-4.1,7.2-1.017,4.21-2.644,5.56-6.964,5.78-6.477.33-10.533,3.69-12.057,9.99-1.088,4.49-2.7,5.36-6.706,5.56a12.725,12.725,0,0,0-7.657,2.59l3.226,3.9a7.669,7.669,0,0,1,4.665-1.41c6.558-.34,9.864-3.08,11.411-9.47,0.982-4.05,3.181-5.88,7.353-6.09,6.531-.34,10.131-3.32,11.67-9.68,0.566-2.34,1.2-3.69,2.388-4.47l5.09,6.14Z" transform="translate(-455.125 -1425.13)"/>
</svg>
