<svg width="42" height="42" viewBox="0 0 42 42" fill="none" xmlns="http://www.w3.org/2000/svg">
<path d="M2.81787 18.3286H39.1815V37.5931C39.1815 38.5238 38.8126 39.4163 38.1559 40.0743C37.4991 40.7324 36.6084 41.1021 35.6797 41.1021H6.31605C5.38794 41.1011 4.49818 40.731 3.84224 40.0731C3.18631 39.4151 2.81787 38.5231 2.81787 37.5931V18.3286Z" stroke="#CF1017" stroke-width="1.5" stroke-linecap="round" stroke-linejoin="round"/>
<path d="M39.8745 11.9521H2.12545C1.50388 11.9521 1 12.457 1 13.0798V17.2005C1 17.8233 1.50388 18.3282 2.12545 18.3282H39.8745C40.4961 18.3282 41 17.8233 41 17.2005V13.0798C41 12.457 40.4961 11.9521 39.8745 11.9521Z" stroke="#CF1017" stroke-width="1.5" stroke-linecap="round" stroke-linejoin="round"/>
<path d="M20.8781 11.6378L16.9518 3.46468C16.6235 2.7818 16.1264 2.1944 15.5077 1.75833C14.8889 1.32227 14.1692 1.05204 13.4168 0.973353C12.6644 0.894663 11.9044 1.01013 11.2091 1.30876C10.5139 1.6074 9.90639 2.07927 9.44449 2.67952L9.32085 2.84257C8.8592 3.44293 8.5585 4.15164 8.44733 4.90129C8.33616 5.65095 8.41822 6.41664 8.68571 7.12555C8.9532 7.83447 9.39723 8.46304 9.97557 8.95151C10.5539 9.43998 11.2473 9.77211 11.9899 9.91632L20.8781 11.6378Z" stroke="#CF1017" stroke-width="1.5" stroke-linecap="round" stroke-linejoin="round"/>
<path d="M21.1218 11.6378L25.0482 3.46468C25.3764 2.7818 25.8735 2.1944 26.4923 1.75833C27.111 1.32227 27.8308 1.05204 28.5832 0.973353C29.3356 0.894663 30.0955 1.01013 30.7908 1.30876C31.4861 1.6074 32.0936 2.07927 32.5555 2.67952L32.6791 2.84074C33.1407 3.44111 33.4414 4.14981 33.5526 4.89947C33.6638 5.64913 33.5817 6.41481 33.3142 7.12373C33.0467 7.83264 32.6027 8.46122 32.0244 8.94969C31.446 9.43816 30.7526 9.77029 30.01 9.9145L21.1218 11.6378Z" stroke="#CF1017" stroke-width="1.5" stroke-linecap="round" stroke-linejoin="round"/>
<path d="M14.6362 11.9521L14.679 41.1022" stroke="#CF1017" stroke-width="1.5" stroke-linecap="square" stroke-linejoin="round"/>
<path d="M27.3638 11.9521V41.1022" stroke="#CF1017" stroke-width="1.5" stroke-linecap="square" stroke-linejoin="round"/>
</svg>
