<svg width="42" height="41" viewBox="0 0 42 41" fill="none" xmlns="http://www.w3.org/2000/svg">
<path d="M11.3075 36.1767H12.7519C13.0917 36.1767 13.4256 36.2749 13.7076 36.4648C14.1566 36.7671 14.6012 37.0763 15.0625 37.3596C15.3264 37.5217 15.6282 37.748 15.9276 37.8333L27.0275 37.8462L34.781 37.8483C36.2803 37.8487 37.5264 36.6195 37.4969 35.1175C37.4701 33.7575 37.2469 32.5358 35.8886 32.5358H36.0611C37.5258 32.5358 38.654 31.336 38.6391 29.8684C38.6233 28.3122 38.8596 27.0385 37.312 27.0385H37.8294C39.3038 27.0385 40.089 25.7481 40.089 24.2547C40.089 22.7772 40.2816 21.5904 38.8071 21.5904H39.3224C40.7969 21.5904 40.9999 20.2893 40.9999 18.8119C40.9999 17.3184 40.2013 16.2308 38.7269 16.2308L24.7786 16.2536C25.1029 15.8068 26.7513 9.67034 26.6297 8.49229C26.5425 7.64786 26.2953 6.80561 26.0902 5.98466C25.8159 4.88613 25.5206 3.79314 25.2255 2.70009C25.0369 2.00146 23.9331 1.51092 23.3209 1.28905C22.3903 0.951816 21.3996 1.10555 20.6203 1.71849C20.2055 2.04473 19.5615 2.58188 19.5623 3.14594C19.5649 5.10078 19.5605 7.0556 19.5678 9.01043C19.5679 9.02748 19.568 9.04452 19.568 9.06158C19.5684 9.16052 19.5686 9.26082 19.5433 9.35647C19.5162 9.45902 19.4611 9.55154 19.4067 9.64251C18.3144 11.4682 17.227 13.2968 16.1402 15.1257C15.6636 15.9277 15.1873 16.7298 14.7124 17.5328C14.2817 18.261 13.8896 19.0552 13.1506 19.5204C12.4979 19.9312 11.8998 20.3106 11.2434 20.7205" stroke="#CF1017" stroke-width="1.5" stroke-miterlimit="10" stroke-linecap="round" stroke-linejoin="round"/>
<path d="M9.04717 39.4592H3.13895C1.95764 39.4592 1 38.4997 1 37.316V20.8164C1 19.6327 1.95764 18.6731 3.13895 18.6731H9.04717C10.2285 18.6731 11.1861 19.6327 11.1861 20.8164V37.316C11.1861 38.4997 10.2285 39.4592 9.04717 39.4592Z" stroke="#CF1017" stroke-width="1.5" stroke-miterlimit="10" stroke-linecap="round" stroke-linejoin="round"/>
<path d="M4.26099 29.5912V21.4914" stroke="#CF1017" stroke-width="1.5" stroke-miterlimit="10" stroke-linecap="round" stroke-linejoin="round"/>
<path d="M4.26099 31.4348V32.7245" stroke="#CF1017" stroke-width="1.5" stroke-miterlimit="10" stroke-linecap="round" stroke-linejoin="round"/>
</svg>
