<svg width="21" height="25" viewBox="0 0 21 25" fill="none" xmlns="http://www.w3.org/2000/svg">
<path d="M7.30092 8.47493C8.54089 8.09191 6.53994 1.26599 5.97963 0.962169C5.41933 0.658347 4.00486 0.996661 2.98576 1.68642C0.297287 3.50561 0.686309 8.07255 0.802277 9.43214C1.31862 15.4941 6.0759 20.3888 10.5738 22.4945C12.2345 23.272 14.9146 24.5269 17.5056 23.3083C19.0925 22.562 20.5277 20.9149 20.4243 20.3744C20.3208 19.8341 16.5036 16.574 15.6896 16.3768C14.8756 16.1797 13.2581 18.7702 12.3968 18.6766C11.5357 18.5828 10.0196 17.1242 8.50305 15.4582C6.57983 13.3456 5.16591 10.8261 5.49718 9.87597" stroke="#FEA5B3" stroke-miterlimit="10" stroke-linecap="round" stroke-linejoin="round"/>
</svg>
