<svg width="100" height="100" viewBox="0 0 100 100" fill="none" xmlns="http://www.w3.org/2000/svg">
<circle cx="49.5354" cy="49.5354" r="49.0354" stroke="#FEA5B3"/>
<path d="M60.0213 68.3434C54.5034 68.3434 50.0142 64.1988 50.0142 59.1042C50.0142 57.0406 51.5257 52.6494 54.635 45.6799C56.8872 40.6314 59.1698 36.085 59.1926 36.0397C59.3509 35.7247 59.6713 35.5262 60.0213 35.5262C60.3714 35.5262 60.6918 35.7247 60.8501 36.0397C60.8729 36.085 63.1554 40.6315 65.4076 45.6799C68.5169 52.6494 70.0284 57.0406 70.0284 59.1042C70.0284 64.1988 65.5392 68.3434 60.0213 68.3434ZM60.0213 38.5604C57.1579 44.4103 51.8728 55.8745 51.8728 59.1042C51.8728 63.1647 55.5282 66.4681 60.0213 66.4681C64.5145 66.4681 68.1698 63.1647 68.1698 59.1042C68.1698 55.8745 62.8848 44.4103 60.0213 38.5604Z" fill="#FEA5B3"/>
<path d="M38.3781 56.1851C33.7584 56.1851 30 52.96 30 48.9958C30 45.4052 36.7878 32.8985 37.5618 31.4843C37.7253 31.1856 38.0382 31 38.3781 31C38.7179 31 39.0308 31.1856 39.1943 31.4843C39.9682 32.8986 46.7561 45.4053 46.7561 48.9958C46.7561 52.96 42.9977 56.1851 38.3781 56.1851ZM38.3781 33.8935C35.5018 39.293 31.8619 46.8465 31.8619 48.9958C31.8619 51.9314 34.7851 54.3195 38.3781 54.3195C41.9712 54.3195 44.8944 51.9313 44.8944 48.9958C44.8943 46.8458 41.2544 39.2927 38.3781 33.8935Z" fill="#FEA5B3"/>
<path d="M62.5815 62.7139C60.5283 62.7139 58.8579 61.0402 58.8579 58.9831C58.8579 56.9259 60.5283 55.2523 62.5815 55.2523C64.6347 55.2523 66.3051 56.9259 66.3051 58.9831C66.3051 61.0402 64.6346 62.7139 62.5815 62.7139ZM62.5815 57.1177C61.5549 57.1177 60.7197 57.9545 60.7197 58.9831C60.7197 60.0117 61.5549 60.8485 62.5815 60.8485C63.6081 60.8485 64.4433 60.0117 64.4433 58.9831C64.4433 57.9545 63.6081 57.1177 62.5815 57.1177Z" fill="#FEA5B3"/>
<path d="M41.1706 51.5206C39.6307 51.5206 38.3779 50.2654 38.3779 48.7225C38.3779 47.1796 39.6307 45.9243 41.1706 45.9243C42.7105 45.9243 43.9633 47.1796 43.9633 48.7225C43.9633 50.2654 42.7105 51.5206 41.1706 51.5206ZM41.1706 47.7898C40.6573 47.7898 40.2397 48.2082 40.2397 48.7225C40.2397 49.2368 40.6573 49.6552 41.1706 49.6552C41.6839 49.6552 42.1015 49.2368 42.1015 48.7225C42.1015 48.2082 41.6839 47.7898 41.1706 47.7898Z" fill="#FEA5B3"/>
</svg>
