<svg width="161" height="48" viewBox="0 0 161 48" fill="none" xmlns="http://www.w3.org/2000/svg">
<line x1="109" y1="23.5" x2="161" y2="23.5" stroke="black"/>
<line y1="23.5" x2="52" y2="23.5" stroke="black"/>
<path d="M90.8807 23.6052C91.8254 22.844 92.8231 21.409 92.1552 18.9125C91.9436 18.1214 91.3976 17.4439 90.6572 17.0534C89.0276 16.1943 87.5253 16.1892 86.7604 16.2661C86.5419 14.9304 85.5069 13.8484 84.1398 13.6008C82.3542 13.2781 81.2409 14.4875 80.6774 15.6323C80.1154 14.8381 79.0084 13.8638 76.9604 13.8638C76.073 13.8638 75.3603 14.167 74.8426 14.7648C74.3778 15.3012 74.1456 16.0021 74.0359 16.6645C70.6293 16.7306 68.0761 18.8226 67.9674 18.913C67.8627 19.0002 67.8022 19.1295 67.8022 19.2657C67.8022 22.7697 69.5583 24.7237 70.4023 25.4598C69.336 26.785 68.3569 28.4389 68.3277 30.0682C68.3059 31.2855 68.807 32.3415 69.8172 33.2069C71.1924 34.385 72.9779 34.9851 75.0631 34.9851C75.8279 34.9851 76.6336 34.9042 77.4733 34.7415C79.461 34.3564 81.0316 33.6392 81.4886 33.4169C81.8191 33.6303 82.1447 33.7936 82.4217 33.903C82.4446 33.9121 82.4681 33.9192 82.492 33.9245C83.4753 34.1403 84.4187 34.2302 85.3097 34.2302C89.6398 34.2298 92.7105 32.1063 92.8645 31.9977C92.9864 31.9116 93.0588 31.7719 93.0588 31.6227V28.1218C93.0588 26.3745 92.2484 24.7025 90.8807 23.6052V23.6052ZM90.2286 17.8654C90.7434 18.1368 91.1222 18.6048 91.2679 19.1496C91.5995 20.3888 91.6351 22.072 89.9709 23.1288C89.8542 23.0834 89.6027 22.9771 89.2817 22.7943C89.8642 22.4503 90.4362 21.8009 90.6599 20.6601C90.7087 20.4114 90.5465 20.1702 90.2976 20.1214C90.0492 20.0731 89.8073 20.2349 89.7586 20.4836C89.6155 21.2132 89.2987 21.7243 88.817 22.0025C88.6581 22.0943 88.5047 22.146 88.3821 22.1752C87.9794 21.8448 87.5611 21.4189 87.1992 20.8799C87.2221 20.7805 87.2424 20.6796 87.2596 20.5771C87.5189 19.022 87.4948 17.8768 87.1892 17.1603C87.8944 17.1368 89.0263 17.2316 90.2286 17.8654V17.8654ZM80.9257 29.2573C81.5308 28.5409 81.7716 27.4576 81.6413 26.0303C82.6879 25.6542 85.6501 24.3993 86.8319 21.9216C87.0994 22.2463 87.3804 22.5263 87.6585 22.7666C87.9989 24.8835 86.3649 27.0405 84.6973 28.1517C83.5806 28.8958 81.9415 29.162 80.9257 29.2573V29.2573ZM73.997 26.1126C73.57 25.303 73.5444 24.3627 73.9191 23.3092C74.2785 23.7817 74.8308 24.4115 75.5677 24.9768C76.7572 25.8896 78.059 26.3506 79.413 26.3506C79.8484 26.3506 80.2895 26.3011 80.7338 26.2054C80.823 27.3353 80.6431 28.1892 80.2056 28.6889C79.9018 29.0358 79.5418 29.1375 79.3534 29.1674C77.9294 28.8601 74.9999 28.0137 73.997 26.1126V26.1126ZM74.7808 18.9744C74.7946 18.9608 74.8048 18.9446 74.8166 18.9296C75.0183 18.7599 75.7896 18.1982 77.0193 18.3216C76.7435 18.7545 76.5556 19.2514 76.4629 19.8082C76.2814 20.8965 76.6593 21.5324 77.0805 21.8957C77.1336 22.6278 77.5558 23.2472 78.2829 23.6518C78.8448 23.9644 79.5367 24.1221 80.2008 24.1221C80.8161 24.1221 81.4077 23.9866 81.8486 23.7134C83.7321 22.5467 84.8028 21.3381 85.0309 20.1212C85.1797 19.328 84.9789 18.5593 84.4341 17.8362C84.2906 17.6458 84.128 17.4716 83.9506 17.3138C85.1886 16.8472 85.9506 17.1896 85.9831 17.2048C86.0331 17.2299 86.0871 17.2455 86.1426 17.251C86.1969 17.281 86.8087 17.6973 86.3538 20.4259C85.9191 23.0321 83.0035 24.4938 81.6729 25.0319C81.5903 25.0145 81.5023 25.0186 81.4174 25.0505C79.5341 25.7563 77.7621 25.4925 76.1502 24.2663C75.0592 23.4365 74.4018 22.42 74.2559 22.1813C74.2447 22.1534 74.2315 22.1262 74.2147 22.1006C74.1729 22.0371 73.2097 20.5261 74.7808 18.9744ZM80.9488 17.249C82.0393 17.1467 83.0941 17.5837 83.7003 18.3884C84.0834 18.8969 84.2274 19.423 84.1282 19.9521C83.9494 20.9048 83.0198 21.9078 81.3648 22.933C80.7382 23.3211 79.5067 23.2821 78.7296 22.8496C78.5081 22.7263 78.3361 22.582 78.2143 22.4177C79.6022 22.6942 81.3691 22.1122 82.0952 21.2684C82.5398 20.7518 82.5937 20.1542 82.2433 19.6288C81.8329 19.0134 81.3139 18.6706 80.7011 18.61C79.5247 18.4934 78.4892 19.5153 78.4457 19.5589C78.2663 19.7382 78.2663 20.0288 78.4457 20.208C78.625 20.3873 78.9159 20.3873 79.095 20.208C79.1026 20.2005 79.8744 19.4504 80.6105 19.5235C80.9409 19.5562 81.225 19.7572 81.479 20.1381C81.5645 20.2663 81.6141 20.4196 81.3987 20.6699C80.8041 21.3611 78.9605 21.8473 77.9599 21.3792C77.443 21.1375 77.2495 20.6729 77.3687 19.9589C77.4819 19.2803 77.7649 18.7657 78.1458 18.3764C78.1666 18.3596 78.1854 18.3405 78.2032 18.3202C78.9411 17.6076 80.0167 17.336 80.9488 17.249V17.249ZM83.9761 14.5042C84.8842 14.6686 85.5868 15.3477 85.8095 16.209C85.2309 16.1047 84.257 16.0951 83.0401 16.7147C82.5315 16.4737 81.9652 16.3352 81.3798 16.3186C81.6971 15.5365 82.4627 14.23 83.9761 14.5042V14.5042ZM75.5381 15.3643C75.8784 14.9724 76.3436 14.7819 76.9604 14.7819C78.9163 14.7819 79.7774 15.8241 80.1155 16.4404C79.1355 16.6269 78.3306 16.9895 77.7235 17.5113C76.4558 17.2118 75.481 17.4985 74.8665 17.8114C74.8634 17.0872 74.9688 16.02 75.5381 15.3643V15.3643ZM68.7232 19.4892C69.3108 19.0545 71.3772 17.6694 73.9504 17.5836C73.9401 17.9624 73.9595 18.2819 73.9779 18.484C73.0222 19.5174 72.9066 20.5494 72.9853 21.2477C73.0409 21.7436 73.1973 22.1346 73.3144 22.3698C73.2637 22.478 73.2171 22.5854 73.1729 22.6922C73.1554 22.7026 73.1377 22.7122 73.1214 22.7253C73.0337 22.7952 72.0504 23.5865 70.997 24.7607C70.278 24.1333 68.7941 22.4801 68.7232 19.4892V19.4892ZM70.4148 32.51C69.6117 31.8219 69.2293 31.029 69.2459 30.0859C69.2845 27.8938 71.4638 25.5041 72.757 24.2759C72.6795 25.0467 72.8056 25.7685 73.1336 26.436C73.1002 26.4503 73.0677 26.4672 73.0374 26.49C72.9416 26.5617 70.6939 28.2736 70.8637 30.676C70.8808 30.9178 71.0824 31.1026 71.3213 31.1026C71.3322 31.1026 71.3431 31.1022 71.3541 31.1014C71.6071 31.0835 71.7976 30.8641 71.7798 30.6112C71.6455 28.7125 73.5692 27.2388 73.5886 27.2241C73.5985 27.2166 73.6064 27.2074 73.6155 27.1992C74.9648 28.9074 77.5343 29.7021 78.9797 30.0285C79.0472 30.0702 79.1255 30.0965 79.2106 30.0982C79.2123 30.0982 79.2156 30.0983 79.2205 30.0983C79.2337 30.0983 79.2587 30.0979 79.293 30.0959C79.3896 30.1157 79.4788 30.1329 79.5589 30.1477C79.4624 31.2361 79.9923 32.124 80.6756 32.7782C79.0182 33.4988 73.793 35.4044 70.4148 32.51V32.51ZM92.1404 31.374C91.2528 31.9255 87.4299 34.0516 82.729 33.0369C82.583 32.9744 81.9514 32.6873 81.3912 32.1902C80.7137 31.5891 80.4073 30.9253 80.4759 30.2132C80.9553 30.1874 81.7472 30.1173 82.6093 29.9301C82.7636 30.1768 83.1907 30.7559 84.0109 31.1665C84.6569 31.4898 85.3538 31.6153 86.0468 31.6153C87.1482 31.6153 88.2392 31.2982 89.0964 30.9555C89.332 30.8614 89.4464 30.5943 89.3523 30.3589C89.2581 30.1234 88.9908 30.0093 88.7554 30.1032C85.4912 31.4081 84.0417 30.2568 83.5576 29.6787C84.1376 29.4936 84.7102 29.2465 85.2068 28.9157C86.2225 28.2389 87.1212 27.3037 87.737 26.2827C88.2966 25.3549 88.5952 24.3974 88.6205 23.4701C89.2429 23.852 89.7129 24.0132 89.7523 24.0263C89.8004 24.0424 89.8494 24.0499 89.8976 24.0499C89.9123 24.0499 89.9268 24.0479 89.9414 24.0465L90.1574 24.2067C91.3991 25.1263 92.1404 26.59 92.1404 28.122V31.374Z" fill="black"/>
<path d="M66.0195 38.1643C66.0195 38.1643 65.8067 39.0246 66.0195 39.5014C66.3864 40.3233 68.592 40.5517 68.592 40.5517L70.0309 40.8386L71.7816 41.1357C71.7816 41.1357 76.8315 41.5582 80.0747 41.5814C83.8149 41.6081 89.6418 41.1357 89.6418 41.1357L91.1322 40.9871C91.1322 40.9871 91.9215 40.8864 92.408 40.7644C92.9162 40.6369 93.6532 40.3391 93.6532 40.3391C93.6532 40.3391 94.5971 39.8281 94.8417 39.5014C95.1547 39.0834 94.8417 38.1643 94.8417 38.1643V38.0158M66.0195 38.1643V15.1363C66.0195 15.1363 66.0876 14.2281 66.1681 13.6506C66.2905 12.7716 66.3534 12.2706 66.6138 11.4221C66.9111 10.4534 67.2227 9.962 67.6538 9.045C68.0401 8.22313 68.1746 7.71021 68.6937 6.96505C69.1399 6.32456 69.4364 6.07364 70.0308 5.3308C70.6251 4.58796 70.8752 4.50547 71.5165 3.99369C72.0071 3.60225 72.3175 3.42846 72.8536 3.10228C73.364 2.79181 73.6548 2.62327 74.1908 2.35944C74.8675 2.0263 75.2571 1.85244 75.9736 1.6166C76.6553 1.39219 77.0485 1.28862 77.7564 1.17089C78.3316 1.07524 78.6598 1.05394 79.2421 1.02232C79.9373 0.984576 80.329 1.00176 81.0249 1.02232C81.8967 1.04809 82.3944 1.01978 83.2534 1.17089C84.0854 1.31725 84.5416 1.47074 85.3334 1.76517C86.112 2.05469 86.5417 2.24765 87.2647 2.65657C88.0633 3.10815 88.4795 3.42093 89.1961 3.99369C89.7419 4.42988 90.0254 4.70247 90.5332 5.18223C91.0104 5.63299 91.3169 5.85414 91.7218 6.37077C92.1392 6.90331 92.286 7.26421 92.6132 7.85645C92.9896 8.53781 93.1565 8.94304 93.5046 9.63927C93.7367 10.1034 93.8977 10.3495 94.0989 10.8278C94.4049 11.5552 94.5399 11.9851 94.6931 12.7592C94.7728 13.1616 94.8417 13.7992 94.8417 13.7992V38.0158M66.0195 38.1643C66.0195 38.1643 65.6573 38.2549 65.4252 38.3129C65.1932 38.3709 65.0557 38.3795 64.831 38.4615C64.5872 38.5504 64.4465 38.606 64.2367 38.7586C64.0376 38.9034 63.9247 38.9976 63.791 39.2043C63.7205 39.3132 63.6766 39.3763 63.6424 39.5014C63.6019 39.65 63.4938 39.7731 63.4938 39.9471C63.4938 40.2932 63.4524 40.5577 63.5238 40.8386M94.8417 38.0158C94.8417 38.0158 95.3889 38.1859 95.7331 38.3129C96.0263 38.4211 96.1956 38.4721 96.476 38.61C96.7795 38.7594 96.9938 38.8031 97.2188 39.0557C97.682 39.576 97.6283 40.2356 97.3046 40.8386M63.5238 40.8386C63.5482 40.9344 63.5857 41.0321 63.6424 41.1357C63.821 41.4615 64.0716 41.531 64.3853 41.73C64.913 42.0647 65.2703 42.1519 65.871 42.3242C66.5494 42.5189 66.9584 42.5 67.6538 42.6214C68.2928 42.7329 68.6512 42.7948 69.288 42.9185C69.5784 42.9749 69.7391 43.0181 70.0309 43.0671C70.549 43.154 70.8453 43.1619 71.368 43.2156C77.8321 43.8799 81.5315 43.7513 88.0076 43.2156C88.6462 43.1628 89.0049 43.1375 89.6418 43.0671C90.1068 43.0157 90.3659 42.9735 90.8304 42.9185C91.3521 42.8567 91.6481 42.8492 92.1675 42.7699C92.7524 42.6807 93.0756 42.6013 93.6532 42.4728C94.3537 42.317 94.753 42.2476 95.436 42.0271C95.9077 41.8748 96.22 41.8678 96.6245 41.5814C96.8924 41.3917 97.0461 41.2662 97.2188 40.9871C97.2492 40.9381 97.2778 40.8885 97.3046 40.8386M63.5238 40.8386C63.5238 40.8386 63.2254 41.1942 63.0481 41.4328C62.7986 41.7687 62.6343 41.9468 62.4538 42.3242C62.2955 42.6553 62.2485 42.8604 62.1567 43.2156C62.0826 43.5021 62.037 43.6641 62.0081 43.9585C61.9798 44.2472 62.0248 44.4429 62.1567 44.7013C62.3104 45.0027 62.4548 44.9834 62.7509 45.147C63.0916 45.3352 63.2866 45.4349 63.6424 45.5927C64.0956 45.7937 64.3553 45.899 64.831 46.0384C65.3987 46.2049 65.7364 46.2195 66.3166 46.3356C66.8968 46.4516 67.2169 46.5465 67.8023 46.6327C68.4363 46.726 68.8018 46.6927 69.4365 46.7813C69.786 46.8301 69.8638 46.8718 70.3279 46.9298C70.7921 46.9879 71.0523 47.0204 71.5165 47.0784C71.5165 47.0784 80.8568 47.4854 86.819 47.0784C87.5737 47.0269 87.997 46.9986 88.7503 46.9298C89.7968 46.8344 90.3817 46.7612 91.4246 46.6327C92.296 46.5253 92.7882 46.4866 93.6532 46.3356C94.4715 46.1927 94.9295 46.1002 95.7331 45.8899C96.4965 45.6901 96.9546 45.6404 97.6644 45.2956C98.1568 45.0564 98.5939 45.0349 98.853 44.5528C99.1001 44.0928 98.9904 43.7194 98.853 43.2156C98.7506 42.8402 98.6023 42.6611 98.4073 42.3242C98.0453 41.6989 97.3046 40.8386 97.3046 40.8386" stroke="black"/>
</svg>
