<svg width="40" height="41" viewBox="0 0 40 41" fill="none" xmlns="http://www.w3.org/2000/svg">
<path d="M20 40.1933C16.0444 40.1933 12.1776 39.0179 8.8886 36.8158C5.59962 34.6137 3.03617 31.4838 1.52242 27.8219C0.00866562 24.1599 -0.387401 20.1304 0.384303 16.2429C1.15601 12.3554 3.06082 8.78451 5.85787 5.98178C8.65492 3.17904 12.2186 1.27036 16.0982 0.497084C19.9778 -0.276189 23.9992 0.120683 27.6537 1.63751C31.3082 3.15434 34.4318 5.723 36.6294 9.01867C38.827 12.3143 40 16.189 40 20.1527C40 25.4678 37.8929 30.5652 34.1421 34.3235C30.3914 38.0819 25.3043 40.1933 20 40.1933ZM20 1.36455C16.2916 1.36455 12.6665 2.46645 9.58307 4.53091C6.49964 6.59538 4.09641 9.52968 2.67727 12.9628C1.25812 16.3958 0.886812 20.1735 1.61028 23.818C2.33376 27.4626 4.11952 30.8103 6.74176 33.4378C9.36399 36.0654 12.7049 37.8548 16.3421 38.5797C19.9792 39.3047 23.7492 38.9326 27.1753 37.5106C30.6014 36.0886 33.5298 33.6805 35.5901 30.5908C37.6503 27.5011 38.75 23.8686 38.75 20.1527C38.75 15.1697 36.7746 10.3909 33.2583 6.86746C29.7419 3.344 24.9728 1.36455 20 1.36455Z" fill="#CF1017"/>
<path d="M29.2813 30.3352L19.5563 20.5967C19.4983 20.5382 19.4525 20.4688 19.4214 20.3925C19.3903 20.3162 19.3745 20.2345 19.375 20.1521V6.37415H20.625V19.8953L30.1625 29.4522L29.2813 30.3352Z" fill="#CF1017"/>
</svg>
