<svg width="24" height="15" viewBox="0 0 24 15" fill="none" xmlns="http://www.w3.org/2000/svg">
<path d="M22.8166 14.8623H19.5716C19.1853 14.8623 18.7989 14.6301 18.5672 14.3205L18.2581 13.8173C18.065 13.5851 16.2879 11.5338 15.2062 10.8758C14.7813 10.6436 14.6268 10.6823 14.6268 10.6823C14.6268 10.6823 14.5882 10.7984 14.5882 10.8371V12.8884C14.5882 13.9721 13.6996 14.8236 12.6566 14.8236H11.884C11.6908 14.8236 7.36412 14.7462 3.92595 9.59857C1.22177 5.57336 0.33325 2.9415 0.024201 1.43204C-0.0530614 1.08371 0.0628321 0.735374 0.255988 0.464447C0.487775 0.19352 0.796824 0.0387041 1.1445 0.0387041H3.88732C4.38952 0.0387041 4.81447 0.348335 4.96899 0.851486C5.27804 1.74168 6.05066 4.02521 6.97781 5.49596C8.3299 7.74078 8.87074 7.9343 9.02526 7.9343C9.14116 7.74078 9.10253 6.96671 9.10253 6.46356C9.10253 6.23133 9.10253 6.03781 9.10253 5.80559C9.10253 5.65077 9.10253 5.45725 9.10253 5.26373C9.10253 4.29613 9.14116 2.9802 8.75485 2.36094L7.98222 1.23853C7.8277 1.0063 7.78907 0.696671 7.94359 0.425743C8.05948 0.154816 8.3299 0 8.63895 0H13.0429C13.6996 0 14.2018 0.541855 14.2018 1.16112V6.73448C14.2018 6.77319 14.2405 6.81189 14.2405 6.81189C14.2405 6.81189 14.395 6.81189 14.8199 6.42485C15.7085 5.53466 16.8288 3.87039 17.9491 1.58686L18.3354 0.696671C18.5285 0.270928 18.9535 0 19.417 0H22.2758C22.6621 0 23.0097 0.19352 23.2415 0.503151C23.4733 0.812782 23.512 1.23853 23.3574 1.58686L23.0484 2.39964V2.43835C23.0097 2.51575 21.9667 4.56706 20.885 6.07652C20.0351 7.23763 19.6875 7.77949 19.7647 7.97301C19.842 8.08912 20.3442 8.66968 20.8464 9.13412C21.7735 10.1017 22.9325 11.3402 23.3574 12.153C23.5506 12.5014 23.7437 12.811 23.8596 13.0819C24.0528 13.4303 24.0528 13.856 23.821 14.243C23.5892 14.6688 23.2415 14.8623 22.8166 14.8623ZM14.704 9.9082C14.9745 9.9082 15.2835 10.0243 15.6312 10.2178C16.906 10.9532 18.8376 13.2367 18.9148 13.3529L18.9535 13.3916L19.2625 13.8947C19.3398 14.0108 19.4557 14.0882 19.6102 14.0882H22.8166C23.0097 14.0882 23.1256 13.9721 23.1643 13.8947C23.2029 13.856 23.2802 13.7012 23.1643 13.5077C23.0097 13.2367 22.8552 12.9271 22.6621 12.5788C22.2758 11.8821 21.1168 10.6436 20.2669 9.71468C19.417 8.78579 19.108 8.47616 19.0307 8.28264C18.7989 7.70208 19.1466 7.23763 20.2669 5.68948C21.2713 4.29614 22.2371 2.39964 22.353 2.16742L22.6621 1.35464C22.7007 1.23853 22.7007 1.08371 22.6234 1.0063C22.5462 0.89019 22.4303 0.851486 22.3144 0.851486H19.4557C19.3012 0.851486 19.1466 0.928894 19.108 1.08371L18.7217 2.0126C17.8718 3.67687 16.6356 5.883 15.438 7.08282C14.9358 7.58597 14.4723 7.74078 14.0859 7.62467C13.6224 7.46986 13.5065 6.96671 13.5065 6.928C13.5065 6.8893 13.5065 6.8893 13.5065 6.85059V1.23853C13.5065 1.0063 13.3133 0.851486 13.1202 0.851486H8.63895L9.41157 1.9739C9.91378 2.78668 9.91378 4.21873 9.87515 5.34114C9.87515 5.53466 9.87515 5.68948 9.87515 5.84429C9.87515 6.03781 9.87515 6.27004 9.87515 6.46356C9.91378 7.54727 9.91378 8.55357 9.21842 8.70838C8.4458 8.8632 7.63454 8.05042 6.32108 5.9217C5.43256 4.41225 4.65994 2.28353 4.27363 1.12241C4.235 0.967598 4.08047 0.851486 3.88732 0.851486H1.18314C1.06724 0.851486 0.951349 0.89019 0.874087 1.0063C0.796824 1.08371 0.796824 1.19982 0.796824 1.31593C1.06724 2.74798 1.95576 5.26373 4.58268 9.21153C7.78907 14.0108 11.8453 14.0882 11.884 14.0882H12.6566C13.3133 14.0882 13.8155 13.5464 13.8155 12.9271V10.8758C13.8155 10.8371 13.8155 10.2952 14.2405 10.0243C14.395 9.94691 14.5495 9.9082 14.704 9.9082Z" fill="#2787F5"/>
</svg>
