<?xml version="1.0" encoding="iso-8859-1"?><!DOCTYPE svg PUBLIC "-//W3C//DTD SVG 1.1//EN" "http://www.w3.org/Graphics/SVG/1.1/DTD/svg11.dtd"><svg viewBox="0 0 1000 1000" xmlns="http://www.w3.org/2000/svg" xmlns:xlink="http://www.w3.org/1999/xlink"><style>:root>svg{display:none}:root>svg:target{display:block}</style><svg viewBox="0 0 405.272 405.272" id="check" xmlns="http://www.w3.org/2000/svg"><path d="M393.401 124.425L179.603 338.208c-15.832 15.835-41.514 15.835-57.361 0L11.878 227.836c-15.838-15.835-15.838-41.52 0-57.358 15.841-15.841 41.521-15.841 57.355-.006l81.698 81.699L336.037 67.064c15.841-15.841 41.523-15.829 57.358 0 15.835 15.838 15.835 41.514.006 57.361z" fill="#fff"/></svg><svg viewBox="0 0 405.272 405.272" id="check-black" xmlns="http://www.w3.org/2000/svg"><path d="M393.401 124.425L179.603 338.208c-15.832 15.835-41.514 15.835-57.361 0L11.878 227.836c-15.838-15.835-15.838-41.52 0-57.358 15.841-15.841 41.521-15.841 57.355-.006l81.698 81.699L336.037 67.064c15.841-15.841 41.523-15.829 57.358 0 15.835 15.838 15.835 41.514.006 57.361z" fill="#354052"/></svg><svg viewBox="0 0 512 512" id="close" xmlns="http://www.w3.org/2000/svg"><path d="M443.6 387.1L312.4 255.4l131.5-130c5.4-5.4 5.4-14.2 0-19.6l-37.4-37.6c-2.6-2.6-6.1-4-9.8-4-3.7 0-7.2 1.5-9.8 4L256 197.8 124.9 68.3c-2.6-2.6-6.1-4-9.8-4-3.7 0-7.2 1.5-9.8 4L68 105.9c-5.4 5.4-5.4 14.2 0 19.6l131.5 130L68.4 387.1c-2.6 2.6-4.1 6.1-4.1 9.8 0 3.7 1.4 7.2 4.1 9.8l37.4 37.6c2.7 2.7 6.2 4.1 9.8 4.1 3.5 0 7.1-1.3 9.8-4.1L256 313.1l130.7 131.1c2.7 2.7 6.2 4.1 9.8 4.1 3.5 0 7.1-1.3 9.8-4.1l37.4-37.6c2.6-2.6 4.1-6.1 4.1-9.8-.1-3.6-1.6-7.1-4.2-9.7z" fill="#354052"/></svg><svg viewBox="0 0 25.625 25.625" id="phone" xmlns="http://www.w3.org/2000/svg"><path d="M22.079 17.835c-1.548-1.324-3.119-2.126-4.648-.804l-.913.799c-.668.58-1.91 3.29-6.712-2.234-4.801-5.517-1.944-6.376-1.275-6.951l.918-.8c1.521-1.325.947-2.993-.15-4.71l-.662-1.04C7.535.382 6.335-.743 4.81.58l-.824.72c-.674.491-2.558 2.087-3.015 5.119-.55 3.638 1.185 7.804 5.16 12.375 3.97 4.573 7.857 6.87 11.539 6.83 3.06-.033 4.908-1.675 5.486-2.272l.827-.721c1.521-1.322.576-2.668-.973-3.995l-.931-.801z" fill="#fff"/></svg><svg viewBox="0 0 25.625 25.625" id="phone-bg" xmlns="http://www.w3.org/2000/svg"><path d="M22.079 17.835c-1.548-1.324-3.119-2.126-4.648-.804l-.913.799c-.668.58-1.91 3.29-6.712-2.234-4.801-5.517-1.944-6.376-1.275-6.951l.918-.8c1.521-1.325.947-2.993-.15-4.71l-.662-1.04C7.535.382 6.335-.743 4.81.58l-.824.72c-.674.491-2.558 2.087-3.015 5.119-.55 3.638 1.185 7.804 5.16 12.375 3.97 4.573 7.857 6.87 11.539 6.83 3.06-.033 4.908-1.675 5.486-2.272l.827-.721c1.521-1.322.576-2.668-.973-3.995l-.931-.801z" fill="#f1f3f7"/></svg><svg viewBox="0 0 25.625 25.625" id="phone-black" xmlns="http://www.w3.org/2000/svg"><path d="M22.079 17.835c-1.548-1.324-3.119-2.126-4.648-.804l-.913.799c-.668.58-1.91 3.29-6.712-2.234-4.801-5.517-1.944-6.376-1.275-6.951l.918-.8c1.521-1.325.947-2.993-.15-4.71l-.662-1.04C7.535.382 6.335-.743 4.81.58l-.824.72c-.674.491-2.558 2.087-3.015 5.119-.55 3.638 1.185 7.804 5.16 12.375 3.97 4.573 7.857 6.87 11.539 6.83 3.06-.033 4.908-1.675 5.486-2.272l.827-.721c1.521-1.322.576-2.668-.973-3.995l-.931-.801z"/></svg><svg fill="none" viewBox="0 0 8 14" id="sl-arrow_l" xmlns="http://www.w3.org/2000/svg"><path d="M7 13L1 7l6-6" stroke="#354052" stroke-width="2" stroke-linecap="round" stroke-linejoin="round"/></svg><svg fill="none" viewBox="0 0 8 14" id="sl-arrow_l_white" xmlns="http://www.w3.org/2000/svg"><path d="M7 13L1 7l6-6" stroke="#fff" stroke-width="2" stroke-linecap="round" stroke-linejoin="round"/></svg><svg fill="none" viewBox="0 0 8 14" id="sl-arrow_r" xmlns="http://www.w3.org/2000/svg"><path d="M1 13l6-6-6-6" stroke="#354052" stroke-width="2" stroke-linecap="round" stroke-linejoin="round"/></svg><svg fill="none" viewBox="0 0 8 14" id="sl-arrow_r_white" xmlns="http://www.w3.org/2000/svg"><path d="M1 13l6-6-6-6" stroke="#fff" stroke-width="2" stroke-linecap="round" stroke-linejoin="round"/></svg><svg viewBox="0 0 1000 1000" id="tphone" xmlns="http://www.w3.org/2000/svg"><path d="M966.4 747.9c-14.9-10.5-178.6-119.3-198.7-131.6-8.8-5.3-19.4-8-31-8-14.9 0-31.5 4.3-47.7 12.8-15.7 8.3-63.5 35.5-86.8 48.8-20.6-14.5-68.9-51.5-145-127.7-75.7-75.4-113-124.2-127.6-144.9 13.3-23.3 40.5-71 48.7-86.7 15.6-29.6 17.4-59.2 4.7-79.1-11.9-18.8-120.3-183.2-131.5-198.7-10.5-14.6-29.4-22.5-49.9-22.5-16.2 0-33.3 4.9-48.2 15.2C152 26.7 8.1 130.9 10 190.2c5.3 166.6 167.2 362.4 302 497.3 134.8 134.9 330.6 296.9 497.9 302.2h1.4c58.5 0 161.4-142 162.4-143.4 27.2-38.7 17.3-81.1-7.3-98.4zm-42.2 62.7c-38.8 53.7-93.7 109.8-115.3 117.9-114.6-5.4-275.5-106.2-453.5-284.2-178-178.1-278.7-338.7-284.1-453 7.7-21.7 63.8-77 117.1-115.5 3.9-2.7 8.8-4.3 13.3-4.3 1 0 1.8.1 2.5.3 17.2 24.9 109.5 164.7 126.2 190.7.1 2.8-.8 9.7-6.1 19.7-5.7 10.6-23 41.5-47.8 84.9l-19.2 33.7 22.3 31.8c16.6 23.6 56.2 74.9 134.3 153C492.4 664.1 543.5 703.5 567 720l31.8 22.3 33.7-19.2c32.6-18.7 72.1-41 84.9-47.8 10.3-5.5 17.3-5.9 19.2-5.9.4 0 .6 0 .9.1 23.3 14.6 166.1 109.4 191.3 126.6.4 2.6 0 7.9-4.6 14.5z" fill="#fff"/></svg><svg viewBox="0 0 1000 1000" id="tphone-bg" xmlns="http://www.w3.org/2000/svg"><path d="M966.4 747.9c-14.9-10.5-178.6-119.3-198.7-131.6-8.8-5.3-19.4-8-31-8-14.9 0-31.5 4.3-47.7 12.8-15.7 8.3-63.5 35.5-86.8 48.8-20.6-14.5-68.9-51.5-145-127.7-75.7-75.4-113-124.2-127.6-144.9 13.3-23.3 40.5-71 48.7-86.7 15.6-29.6 17.4-59.2 4.7-79.1-11.9-18.8-120.3-183.2-131.5-198.7-10.5-14.6-29.4-22.5-49.9-22.5-16.2 0-33.3 4.9-48.2 15.2C152 26.7 8.1 130.9 10 190.2c5.3 166.6 167.2 362.4 302 497.3 134.8 134.9 330.6 296.9 497.9 302.2h1.4c58.5 0 161.4-142 162.4-143.4 27.2-38.7 17.3-81.1-7.3-98.4zm-42.2 62.7c-38.8 53.7-93.7 109.8-115.3 117.9-114.6-5.4-275.5-106.2-453.5-284.2-178-178.1-278.7-338.7-284.1-453 7.7-21.7 63.8-77 117.1-115.5 3.9-2.7 8.8-4.3 13.3-4.3 1 0 1.8.1 2.5.3 17.2 24.9 109.5 164.7 126.2 190.7.1 2.8-.8 9.7-6.1 19.7-5.7 10.6-23 41.5-47.8 84.9l-19.2 33.7 22.3 31.8c16.6 23.6 56.2 74.9 134.3 153C492.4 664.1 543.5 703.5 567 720l31.8 22.3 33.7-19.2c32.6-18.7 72.1-41 84.9-47.8 10.3-5.5 17.3-5.9 19.2-5.9.4 0 .6 0 .9.1 23.3 14.6 166.1 109.4 191.3 126.6.4 2.6 0 7.9-4.6 14.5z" fill="#f1f3f7"/></svg><svg viewBox="0 0 1000 1000" id="tphone-black" xmlns="http://www.w3.org/2000/svg"><path d="M966.4 747.9c-14.9-10.5-178.6-119.3-198.7-131.6-8.8-5.3-19.4-8-31-8-14.9 0-31.5 4.3-47.7 12.8-15.7 8.3-63.5 35.5-86.8 48.8-20.6-14.5-68.9-51.5-145-127.7-75.7-75.4-113-124.2-127.6-144.9 13.3-23.3 40.5-71 48.7-86.7 15.6-29.6 17.4-59.2 4.7-79.1-11.9-18.8-120.3-183.2-131.5-198.7-10.5-14.6-29.4-22.5-49.9-22.5-16.2 0-33.3 4.9-48.2 15.2C152 26.7 8.1 130.9 10 190.2c5.3 166.6 167.2 362.4 302 497.3 134.8 134.9 330.6 296.9 497.9 302.2h1.4c58.5 0 161.4-142 162.4-143.4 27.2-38.7 17.3-81.1-7.3-98.4zm-42.2 62.7c-38.8 53.7-93.7 109.8-115.3 117.9-114.6-5.4-275.5-106.2-453.5-284.2-178-178.1-278.7-338.7-284.1-453 7.7-21.7 63.8-77 117.1-115.5 3.9-2.7 8.8-4.3 13.3-4.3 1 0 1.8.1 2.5.3 17.2 24.9 109.5 164.7 126.2 190.7.1 2.8-.8 9.7-6.1 19.7-5.7 10.6-23 41.5-47.8 84.9l-19.2 33.7 22.3 31.8c16.6 23.6 56.2 74.9 134.3 153C492.4 664.1 543.5 703.5 567 720l31.8 22.3 33.7-19.2c32.6-18.7 72.1-41 84.9-47.8 10.3-5.5 17.3-5.9 19.2-5.9.4 0 .6 0 .9.1 23.3 14.6 166.1 109.4 191.3 126.6.4 2.6 0 7.9-4.6 14.5z"/></svg><svg fill="#fff" viewBox="0 0 50 50" id="whatsapp" xmlns="http://www.w3.org/2000/svg"><path d="M25 2C12.31 2 2 12.31 2 25c0 4.08 1.119 7.886 2.984 11.209L2.037 46.73a1 1 0 001.203 1.24l10.97-2.718C17.436 46.972 21.094 48 25 48c12.69 0 23-10.31 23-23S37.69 2 25 2zm0 2c11.61 0 21 9.39 21 21s-9.39 21-21 21c-3.722 0-7.208-.97-10.238-2.666a1 1 0 00-.729-.098l-9.607 2.381 2.576-9.191a1 1 0 00-.1-.78A20.88 20.88 0 014 25C4 13.39 13.39 4 25 4zm-8.357 9c-.641 0-1.557.238-2.309 1.049-.452.487-2.334 2.32-2.334 5.545 0 3.361 2.331 6.262 2.613 6.635h.002v.001a31.669 31.669 0 003.004 3.684c1.804 1.899 4.34 4.093 7.486 5.436 1.45.617 2.593.99 3.46 1.261 1.605.504 3.067.428 4.165.266.823-.121 1.727-.516 2.622-1.082.894-.566 1.771-1.27 2.158-2.34a8.25 8.25 0 00.469-2.059 4.72 4.72 0 00.01-.787c-.02-.238 0-.42-.221-.785-.466-.764-.993-.784-1.543-1.056a183.29 183.29 0 00-2.05-.993c-.871-.415-1.626-.783-2.091-.949-.294-.106-.652-.258-1.17-.199-.517.059-1.029.432-1.326.873-.282.418-1.418 1.758-1.764 2.152-.004-.002.026.011-.111-.056-.428-.212-.952-.392-1.727-.801a14.283 14.283 0 01-2.804-1.947v-.002c-1.579-1.39-2.685-3.135-3.034-3.721.024-.028-.002.006.047-.043l.002-.002c.357-.351.673-.77.94-1.078.378-.436.545-.82.726-1.18.361-.716.16-1.503-.049-1.918v-.002c.015.029-.112-.252-.25-.576l-.5-1.195c-.374-.898-.792-1.906-1.04-2.496v-.002c-.293-.695-.69-1.196-1.208-1.438-.518-.241-.975-.173-.994-.174h-.002A26.2 26.2 0 0016.643 13zm0 2c.385 0 .765.005 1.084.02.327.016.307.017.244-.012-.064-.03.023-.04.209.402.243.578.663 1.59 1.039 2.49.188.451.363.874.504 1.205.14.332.216.517.304.694v.002l.002.002c.087.17.08.061.05.12-.212.42-.24.522-.454.768-.325.375-.657.792-.832.965-.154.151-.43.386-.604.846-.173.46-.092 1.093.186 1.564.37.629 1.59 2.613 3.484 4.282a16.35 16.35 0 003.194 2.216c.888.469 1.611.743 1.773.823.385.19.805.338 1.293.279.489-.059.91-.355 1.178-.658l.002-.002c.357-.405 1.417-1.615 1.926-2.361.021.007.014.001.183.062v.002h.002c.077.027 1.044.46 1.906.871.863.41 1.738.838 2.022.979.41.203.604.335.654.336a2.35 2.35 0 01-.006.328 6.365 6.365 0 01-.357 1.552c-.105.292-.654.893-1.346 1.33-.692.438-1.534.748-1.846.793-.937.139-2.05.189-3.273-.195a33.421 33.421 0 01-3.273-1.193c-2.776-1.184-5.135-3.198-6.82-4.973a29.716 29.716 0 01-1.999-2.338c-.48-.623-.688-.948-.863-1.178l-.002-.001c-.31-.41-2.207-3.05-2.207-5.426 0-2.516 1.168-3.503 1.8-4.184.333-.358.696-.41.843-.41z"/></svg><svg fill="#f1f3f7" viewBox="0 0 50 50" id="whatsapp-bg" xmlns="http://www.w3.org/2000/svg"><path d="M25 2C12.31 2 2 12.31 2 25c0 4.08 1.119 7.886 2.984 11.209L2.037 46.73a1 1 0 001.203 1.24l10.97-2.718C17.436 46.972 21.094 48 25 48c12.69 0 23-10.31 23-23S37.69 2 25 2zm0 2c11.61 0 21 9.39 21 21s-9.39 21-21 21c-3.722 0-7.208-.97-10.238-2.666a1 1 0 00-.729-.098l-9.607 2.381 2.576-9.191a1 1 0 00-.1-.78A20.88 20.88 0 014 25C4 13.39 13.39 4 25 4zm-8.357 9c-.641 0-1.557.238-2.309 1.049-.452.487-2.334 2.32-2.334 5.545 0 3.361 2.331 6.262 2.613 6.635h.002v.001a31.669 31.669 0 003.004 3.684c1.804 1.899 4.34 4.093 7.486 5.436 1.45.617 2.593.99 3.46 1.261 1.605.504 3.067.428 4.165.266.823-.121 1.727-.516 2.622-1.082.894-.566 1.771-1.27 2.158-2.34a8.25 8.25 0 00.469-2.059 4.72 4.72 0 00.01-.787c-.02-.238 0-.42-.221-.785-.466-.764-.993-.784-1.543-1.056a183.29 183.29 0 00-2.05-.993c-.871-.415-1.626-.783-2.091-.949-.294-.106-.652-.258-1.17-.199-.517.059-1.029.432-1.326.873-.282.418-1.418 1.758-1.764 2.152-.004-.002.026.011-.111-.056-.428-.212-.952-.392-1.727-.801a14.283 14.283 0 01-2.804-1.947v-.002c-1.579-1.39-2.685-3.135-3.034-3.721.024-.028-.002.006.047-.043l.002-.002c.357-.351.673-.77.94-1.078.378-.436.545-.82.726-1.18.361-.716.16-1.503-.049-1.918v-.002c.015.029-.112-.252-.25-.576l-.5-1.195c-.374-.898-.792-1.906-1.04-2.496v-.002c-.293-.695-.69-1.196-1.208-1.438-.518-.241-.975-.173-.994-.174h-.002A26.2 26.2 0 0016.643 13zm0 2c.385 0 .765.005 1.084.02.327.016.307.017.244-.012-.064-.03.023-.04.209.402.243.578.663 1.59 1.039 2.49.188.451.363.874.504 1.205.14.332.216.517.304.694v.002l.002.002c.087.17.08.061.05.12-.212.42-.24.522-.454.768-.325.375-.657.792-.832.965-.154.151-.43.386-.604.846-.173.46-.092 1.093.186 1.564.37.629 1.59 2.613 3.484 4.282a16.35 16.35 0 003.194 2.216c.888.469 1.611.743 1.773.823.385.19.805.338 1.293.279.489-.059.91-.355 1.178-.658l.002-.002c.357-.405 1.417-1.615 1.926-2.361.021.007.014.001.183.062v.002h.002c.077.027 1.044.46 1.906.871.863.41 1.738.838 2.022.979.41.203.604.335.654.336a2.35 2.35 0 01-.006.328 6.365 6.365 0 01-.357 1.552c-.105.292-.654.893-1.346 1.33-.692.438-1.534.748-1.846.793-.937.139-2.05.189-3.273-.195a33.421 33.421 0 01-3.273-1.193c-2.776-1.184-5.135-3.198-6.82-4.973a29.716 29.716 0 01-1.999-2.338c-.48-.623-.688-.948-.863-1.178l-.002-.001c-.31-.41-2.207-3.05-2.207-5.426 0-2.516 1.168-3.503 1.8-4.184.333-.358.696-.41.843-.41z"/></svg><svg viewBox="0 0 50 50" id="whatsapp-black" xmlns="http://www.w3.org/2000/svg"><path d="M25 2C12.31 2 2 12.31 2 25c0 4.08 1.119 7.886 2.984 11.209L2.037 46.73a1 1 0 001.203 1.24l10.97-2.718C17.436 46.972 21.094 48 25 48c12.69 0 23-10.31 23-23S37.69 2 25 2zm0 2c11.61 0 21 9.39 21 21s-9.39 21-21 21c-3.722 0-7.208-.97-10.238-2.666a1 1 0 00-.729-.098l-9.607 2.381 2.576-9.191a1 1 0 00-.1-.78A20.88 20.88 0 014 25C4 13.39 13.39 4 25 4zm-8.357 9c-.641 0-1.557.238-2.309 1.049-.452.487-2.334 2.32-2.334 5.545 0 3.361 2.331 6.262 2.613 6.635h.002v.001a31.669 31.669 0 003.004 3.684c1.804 1.899 4.34 4.093 7.486 5.436 1.45.617 2.593.99 3.46 1.261 1.605.504 3.067.428 4.165.266.823-.121 1.727-.516 2.622-1.082.894-.566 1.771-1.27 2.158-2.34a8.25 8.25 0 00.469-2.059 4.72 4.72 0 00.01-.787c-.02-.238 0-.42-.221-.785-.466-.764-.993-.784-1.543-1.056a183.29 183.29 0 00-2.05-.993c-.871-.415-1.626-.783-2.091-.949-.294-.106-.652-.258-1.17-.199-.517.059-1.029.432-1.326.873-.282.418-1.418 1.758-1.764 2.152-.004-.002.026.011-.111-.056-.428-.212-.952-.392-1.727-.801a14.283 14.283 0 01-2.804-1.947v-.002c-1.579-1.39-2.685-3.135-3.034-3.721.024-.028-.002.006.047-.043l.002-.002c.357-.351.673-.77.94-1.078.378-.436.545-.82.726-1.18.361-.716.16-1.503-.049-1.918v-.002c.015.029-.112-.252-.25-.576l-.5-1.195c-.374-.898-.792-1.906-1.04-2.496v-.002c-.293-.695-.69-1.196-1.208-1.438-.518-.241-.975-.173-.994-.174h-.002A26.2 26.2 0 0016.643 13zm0 2c.385 0 .765.005 1.084.02.327.016.307.017.244-.012-.064-.03.023-.04.209.402.243.578.663 1.59 1.039 2.49.188.451.363.874.504 1.205.14.332.216.517.304.694v.002l.002.002c.087.17.08.061.05.12-.212.42-.24.522-.454.768-.325.375-.657.792-.832.965-.154.151-.43.386-.604.846-.173.46-.092 1.093.186 1.564.37.629 1.59 2.613 3.484 4.282a16.35 16.35 0 003.194 2.216c.888.469 1.611.743 1.773.823.385.19.805.338 1.293.279.489-.059.91-.355 1.178-.658l.002-.002c.357-.405 1.417-1.615 1.926-2.361.021.007.014.001.183.062v.002h.002c.077.027 1.044.46 1.906.871.863.41 1.738.838 2.022.979.41.203.604.335.654.336a2.35 2.35 0 01-.006.328 6.365 6.365 0 01-.357 1.552c-.105.292-.654.893-1.346 1.33-.692.438-1.534.748-1.846.793-.937.139-2.05.189-3.273-.195a33.421 33.421 0 01-3.273-1.193c-2.776-1.184-5.135-3.198-6.82-4.973a29.716 29.716 0 01-1.999-2.338c-.48-.623-.688-.948-.863-1.178l-.002-.001c-.31-.41-2.207-3.05-2.207-5.426 0-2.516 1.168-3.503 1.8-4.184.333-.358.696-.41.843-.41z"/></svg><svg viewBox="0 0 192.904 192.904" id="zoom-in" xmlns="http://www.w3.org/2000/svg"><g fill="#354052"><path d="M190.707 180.101l-47.078-47.077c11.702-14.072 18.752-32.142 18.752-51.831C162.381 36.423 125.959 0 81.191 0 36.422 0 0 36.423 0 81.193c0 44.767 36.422 81.187 81.191 81.187 19.688 0 37.759-7.049 51.831-18.751l47.079 47.078a7.474 7.474 0 005.303 2.197 7.498 7.498 0 005.303-12.803zM15 81.193C15 44.694 44.693 15 81.191 15c36.497 0 66.189 29.694 66.189 66.193 0 36.496-29.692 66.187-66.189 66.187C44.693 147.38 15 117.689 15 81.193z"/><path d="M118.035 73.689H88.69V44.345c0-4.142-3.357-7.5-7.5-7.5s-7.5 3.358-7.5 7.5V73.69H44.346a7.5 7.5 0 00-7.5 7.5 7.5 7.5 0 007.5 7.5H73.69v29.346c0 4.142 3.357 7.5 7.5 7.5s7.5-3.358 7.5-7.5V88.689h29.345a7.5 7.5 0 007.5-7.5 7.5 7.5 0 00-7.5-7.5z"/></g></svg></svg>